# This file uses centimeters as units for non-parametric coordinates.

mtllib AlaDer.mtl
g default
v -0.037149 0.084962 0.042595
v 0.120350 0.020131 -0.038534
v -0.159897 0.005544 0.025774
v 0.129198 -0.124679 -0.027209
v 0.011372 -0.011517 -0.094696
v 0.055766 -0.021338 -0.088261
v -0.065800 -0.052989 -0.067413
v 0.025617 -0.127263 -0.060858
v 0.094293 -0.040017 -0.201404
v 0.112441 -0.068401 -0.173260
v -0.003406 -0.059481 -0.253220
v -0.034423 -0.094382 -0.261927
v 0.165875 -0.044930 -0.326647
v 0.176931 -0.069566 -0.296864
v 0.060068 -0.068234 -0.388849
v 0.028213 -0.099537 -0.391282
v 0.263060 -0.091682 -0.494982
v 0.269761 -0.104932 -0.495634
v 0.243043 -0.093967 -0.506451
v 0.239591 -0.110167 -0.513608
vt 0.000000 0.000000
vt 0.000000 0.000000
vt 0.000000 0.000000
vt 0.000000 0.000000
vt 0.496090 0.000000
vt 0.496090 0.000000
vt 0.000000 0.000000
vt 0.496090 0.000000
vt 0.496090 0.000000
vt 0.496090 0.000000
vt 0.496090 0.000000
vt 0.496090 0.000000
vt 0.496090 0.000000
vt 0.000000 0.000000
vt 0.496090 0.000000
vt 0.000000 0.000000
vt 0.000000 0.000000
vt 0.000000 0.000000
vt 0.000000 0.000000
vt 0.496090 0.000000
vn 0.050096 0.825395 -0.562328
vn 0.050096 0.825395 -0.562328
vn 0.050096 0.825395 -0.562328
vn 0.239924 0.569286 -0.786352
vn 0.239924 0.569286 -0.786352
vn 0.239924 0.569286 -0.786352
vn 0.309189 -0.919512 -0.242694
vn 0.309189 -0.919512 -0.242694
vn 0.309189 -0.919512 -0.242694
vn 0.619346 -0.023531 -0.784765
vn 0.619346 -0.023531 -0.784765
vn 0.619346 -0.023531 -0.784766
vn 0.300086 -0.318069 -0.899322
vn 0.300086 -0.318069 -0.899322
vn 0.300086 -0.318069 -0.899322
vn -0.373377 -0.907395 0.192933
vn -0.373377 -0.907395 0.192933
vn -0.373377 -0.907395 0.192933
vn -0.290629 -0.276877 0.915901
vn -0.290629 -0.276877 0.915901
vn -0.290629 -0.276877 0.915901
vn -0.311019 0.631202 -0.710529
vn -0.311019 0.631202 -0.710529
vn -0.311019 0.631202 -0.710529
vn -0.532224 0.592648 -0.604571
vn -0.532224 0.592648 -0.604571
vn -0.532224 0.592648 -0.604571
vn -0.657219 0.670133 -0.344943
vn -0.657219 0.670133 -0.344943
vn -0.657219 0.670133 -0.344943
vn -0.644176 0.682392 -0.345512
vn -0.644176 0.682392 -0.345512
vn -0.644176 0.682392 -0.345512
vn 0.226712 0.970418 -0.083009
vn 0.226712 0.970418 -0.083009
vn 0.226712 0.970418 -0.083009
vn 0.756869 0.635449 0.152819
vn 0.756869 0.635449 0.152819
vn 0.756869 0.635449 0.152819
vn -0.690165 0.677079 -0.255414
vn -0.690165 0.677079 -0.255414
vn -0.690165 0.677079 -0.255414
vn -0.518244 0.830778 -0.203053
vn -0.518244 0.830778 -0.203053
vn -0.518244 0.830778 -0.203053
vn -0.039034 0.957421 -0.286045
vn -0.039034 0.957421 -0.286045
vn -0.039034 0.957421 -0.286044
vn 0.068178 -0.976865 0.202699
vn 0.068178 -0.976865 0.202699
vn 0.068178 -0.976865 0.202699
vn 0.051700 -0.978778 0.198294
vn 0.051700 -0.978778 0.198294
vn 0.051700 -0.978778 0.198294
vn -0.134741 0.984113 -0.115615
vn -0.134741 0.984113 -0.115615
vn -0.134741 0.984113 -0.115615
vn -0.140352 0.981657 -0.129037
vn -0.140352 0.981657 -0.129037
vn -0.140352 0.981657 -0.129037
vn 0.128734 -0.988725 0.076486
vn 0.128734 -0.988725 0.076486
vn 0.128734 -0.988725 0.076486
vn 0.132864 -0.985703 0.103617
vn 0.132864 -0.985703 0.103617
vn 0.132864 -0.985703 0.103617
vn 0.623252 0.714246 0.318448
vn 0.623252 0.714246 0.318448
vn 0.623252 0.714246 0.318448
vn 0.637097 0.693240 0.336936
vn 0.637097 0.693240 0.336936
vn 0.637097 0.693240 0.336936
vn 0.454890 0.271783 -0.848062
vn 0.454890 0.271783 -0.848062
vn 0.454890 0.271783 -0.848062
vn 0.455980 0.276559 -0.845930
vn 0.455980 0.276559 -0.845930
vn 0.455980 0.276559 -0.845930
vn 0.745967 0.622122 0.237692
vn 0.745967 0.622122 0.237692
vn 0.745967 0.622122 0.237692
vn 0.836130 0.404638 0.370343
vn 0.836130 0.404638 0.370343
vn 0.836130 0.404638 0.370343
vn -0.419241 0.486225 -0.766696
vn -0.419241 0.486225 -0.766696
vn -0.419241 0.486225 -0.766696
vn -0.441049 0.439648 -0.782423
vn -0.441049 0.439648 -0.782423
vn -0.441049 0.439648 -0.782423
vn -0.045866 0.958578 -0.281113
vn -0.045866 0.958578 -0.281113
vn -0.045866 0.958578 -0.281113
vn 0.032708 0.967723 -0.249885
vn 0.032708 0.967723 -0.249885
vn 0.032708 0.967723 -0.249885
vn -0.632043 -0.772415 0.062417
vn -0.632043 -0.772415 0.062417
vn -0.632043 -0.772415 0.062417
vn 0.808564 -0.079305 0.583039
vn 0.808564 -0.079305 0.583039
vn 0.808564 -0.079305 0.583039
s off
g AlaDer:Mesh
usemtl initialShadingGroup
f 1/1/1 2/2/2 5/3/3
f 5/3/4 2/2/5 6/4/6
f 8/5/7 12/6/8 10/7/9
f 2/2/10 4/8/11 6/4/12
f 6/4/13 4/8/14 8/5/15
f 3/9/16 7/10/17 4/8/18
f 4/8/19 7/10/20 8/5/21
f 3/9/22 1/1/23 7/10/24
f 7/10/25 1/1/26 5/3/27
f 12/6/28 11/11/29 16/12/30
f 16/12/31 11/11/32 15/13/33
f 5/3/34 6/4/35 9/14/36
f 9/14/37 6/4/38 10/7/39
f 7/10/40 11/11/41 12/6/42
f 7/10/43 5/3/44 11/11/45
f 11/11/46 5/3/47 9/14/48
f 16/12/49 20/15/50 14/16/51
f 14/16/52 20/15/53 18/17/54
f 9/14/55 13/18/56 11/11/57
f 11/11/58 13/18/59 15/13/60
f 10/7/61 12/6/62 14/16/63
f 14/16/64 12/6/65 16/12/66
f 10/7/67 14/16/68 9/14/69
f 9/14/70 14/16/71 13/18/72
f 17/19/73 18/17/74 19/20/75
f 19/20/76 18/17/77 20/15/78
f 14/16/79 18/17/80 13/18/81
f 13/18/82 18/17/83 17/19/84
f 16/12/85 15/13/86 20/15/87
f 20/15/88 15/13/89 19/20/90
f 15/13/91 13/18/92 19/20/93
f 19/20/94 13/18/95 17/19/96
f 8/5/97 7/10/98 12/6/99
f 6/4/100 8/5/101 10/7/102
