# This file uses centimeters as units for non-parametric coordinates.

mtllib AlaIzq.mtl
g default
v 0.080802 0.006541 0.088537
v 0.036124 -0.096486 0.109342
v 0.143942 -0.006685 0.163131
v 0.080802 0.006541 0.088537
v 0.036124 -0.096486 0.109342
v 0.143942 -0.006685 0.163131
v 0.147548 0.019013 0.035083
v -0.006498 0.068511 -0.071437
v 0.123980 -0.122223 0.081561
v -0.006498 0.068511 -0.067087
v 0.147548 0.019013 0.039433
v -0.130363 0.002221 -0.027690
v 0.123980 -0.122223 0.085911
v 0.034717 0.020700 0.096740
v -0.044188 -0.022595 0.082768
v 0.132711 0.030535 0.183777
v 0.045322 0.024140 0.256659
v 0.019329 -0.008786 0.278951
v 0.227283 0.067371 0.286408
v 0.233463 0.033689 0.265349
v 0.136629 0.069699 0.372335
v 0.107269 0.041988 0.391585
v 0.357137 0.079194 0.437951
v 0.364421 0.066819 0.441786
v 0.339834 0.081524 0.453204
v 0.338555 0.068889 0.466019
v 0.036124 -0.096486 0.113692
v 0.143942 -0.006685 0.167481
v 0.080802 0.006541 0.092887
vt 0.000000 0.000000
vt 0.000000 0.000000
vt 0.496090 0.000000
vt 0.000000 0.000000
vt 0.000000 0.000000
vt 0.000000 0.000000
vt 0.000000 0.000000
vt 0.496090 0.000000
vt 0.496090 0.000000
vt 0.496090 0.000000
vt 0.000000 0.000000
vt 0.000000 0.000000
vt 0.000000 0.000000
vt 0.000000 0.000000
vt 0.000000 0.000000
vt 0.000000 0.000000
vt 0.496090 0.000000
vt 0.496090 0.000000
vt 0.496090 0.000000
vt 0.000000 0.000000
vt 0.496090 0.000000
vt 0.496090 0.000000
vt 0.496090 0.000000
vt 0.496090 0.000000
vt 0.496090 0.000000
vt 0.496090 0.000000
vt 0.000000 0.000000
vt 0.000000 0.000000
vt 0.496090 0.000000
vt 0.000000 0.000000
vt 0.000000 0.000000
vt 0.000000 0.000000
vt 0.496090 0.000000
vt 0.000000 0.000000
vn 0.657921 -0.412538 -0.630042
vn 0.657921 -0.412538 -0.630042
vn 0.657921 -0.412538 -0.630042
vn 0.081004 0.943511 0.321288
vn 0.081004 0.943511 0.321288
vn 0.081004 0.943511 0.321288
vn 0.599021 0.158344 0.784921
vn 0.599021 0.158344 0.784921
vn 0.599021 0.158344 0.784921
vn 0.315523 0.054479 0.947353
vn 0.315523 0.054479 0.947353
vn 0.315523 0.054479 0.947353
vn 0.657921 -0.412538 -0.630042
vn 0.657921 -0.412538 -0.630042
vn 0.657921 -0.412538 -0.630042
vn 0.081004 0.943511 0.321288
vn 0.081004 0.943511 0.321288
vn 0.081004 0.943511 0.321288
vn 0.302928 0.932647 0.195973
vn 0.302928 0.932647 0.195973
vn 0.302928 0.932647 0.195973
vn 0.422837 -0.781977 0.457953
vn 0.422837 -0.781977 0.457953
vn 0.422837 -0.781977 0.457953
vn 0.599021 0.158344 0.784921
vn 0.599021 0.158344 0.784921
vn 0.599021 0.158344 0.784921
vn 0.315522 0.054479 0.947353
vn 0.315522 0.054479 0.947353
vn 0.315522 0.054479 0.947353
vn -0.394370 -0.685005 -0.612569
vn -0.394370 -0.685005 -0.612569
vn -0.394370 -0.685005 -0.612568
vn -0.501922 -0.840831 0.202675
vn -0.501922 -0.840831 0.202675
vn -0.501922 -0.840831 0.202675
vn -0.313691 0.844322 0.434418
vn -0.313691 0.844322 0.434418
vn -0.313691 0.844322 0.434418
vn -0.497192 0.791244 0.355997
vn -0.497192 0.791244 0.355997
vn -0.497192 0.791244 0.355997
vn -0.685875 0.692621 0.223278
vn -0.685875 0.692621 0.223278
vn -0.685875 0.692621 0.223278
vn -0.610953 0.771287 0.178473
vn -0.610953 0.771287 0.178473
vn -0.610953 0.771287 0.178473
vn 0.243436 0.894428 -0.375151
vn 0.243436 0.894428 -0.375151
vn 0.243436 0.894428 -0.375151
vn 0.719685 0.449019 -0.529562
vn 0.719685 0.449019 -0.529562
vn 0.719685 0.449019 -0.529562
vn -0.708448 0.682063 0.181361
vn -0.708448 0.682063 0.181361
vn -0.708448 0.682063 0.181361
vn -0.482793 0.875635 0.013181
vn -0.482793 0.875635 0.013181
vn -0.482793 0.875635 0.013181
vn -0.086013 0.996170 -0.015725
vn -0.086013 0.996170 -0.015725
vn -0.086013 0.996170 -0.015725
vn 0.055881 -0.987993 0.144041
vn 0.055881 -0.987993 0.144041
vn 0.055881 -0.987993 0.144041
vn 0.071138 -0.988141 0.136077
vn 0.071138 -0.988141 0.136077
vn 0.071138 -0.988141 0.136077
vn -0.189976 0.955350 -0.226310
vn -0.189976 0.955350 -0.226310
vn -0.189976 0.955350 -0.226310
vn -0.203485 0.966044 -0.159223
vn -0.203485 0.966044 -0.159223
vn -0.203485 0.966044 -0.159223
vn 0.203025 -0.956623 0.208932
vn 0.203025 -0.956623 0.208932
vn 0.203025 -0.956623 0.208932
vn 0.203784 -0.942282 0.265663
vn 0.203784 -0.942282 0.265663
vn 0.203784 -0.942282 0.265663
vn 0.528536 0.517646 -0.672824
vn 0.528536 0.517646 -0.672824
vn 0.528536 0.517646 -0.672824
vn 0.546929 0.468735 -0.693653
vn 0.546930 0.468736 -0.693654
vn 0.546930 0.468735 -0.693653
vn 0.598018 0.540085 0.592185
vn 0.598018 0.540085 0.592185
vn 0.598018 0.540085 0.592185
vn 0.597577 0.536421 0.595947
vn 0.597577 0.536422 0.595947
vn 0.597577 0.536422 0.595947
vn 0.730001 0.230266 -0.643487
vn 0.730001 0.230266 -0.643487
vn 0.730001 0.230266 -0.643488
vn 0.657568 0.482447 -0.578662
vn 0.657568 0.482447 -0.578662
vn 0.657568 0.482447 -0.578662
vn -0.284457 0.731693 0.619443
vn -0.284457 0.731693 0.619443
vn -0.284457 0.731693 0.619443
vn -0.300733 0.693962 0.654199
vn -0.300733 0.693962 0.654199
vn -0.300733 0.693962 0.654200
vn -0.033308 0.997510 -0.062165
vn -0.033308 0.997510 -0.062165
vn -0.033308 0.997510 -0.062165
vn 0.037281 0.993294 -0.109440
vn 0.037281 0.993294 -0.109440
vn 0.037281 0.993294 -0.109440
vn -0.706176 -0.652630 0.274572
vn -0.706176 -0.652630 0.274572
vn -0.706176 -0.652630 0.274572
s off
g polySurface2
usemtl Penguin:lambert4SG
f 1/1/1 3/2/2 2/3/3
usemtl Penguin:lambert3SG
f 7/4/4 8/5/5 4/6/6
f 7/4/7 4/7/8 9/8/9
f 9/9/10 4/7/11 5/10/12
f 4/6/13 6/11/14 5/10/15
usemtl Penguin:lambert4SG
f 11/12/16 10/13/17 29/14/18
f 10/13/19 14/15/20 29/14/21
f 28/16/22 18/17/23 27/18/24
f 11/12/25 29/14/26 13/19/27
f 13/19/28 29/20/29 27/18/30
f 27/21/31 15/22/32 13/19/33
f 13/19/34 15/22/35 12/23/36
f 12/23/37 15/22/38 10/13/39
f 10/13/40 15/22/41 14/15/42
f 18/17/43 22/24/44 17/25/45
f 17/25/46 22/24/47 21/26/48
f 14/15/49 16/27/50 29/14/51
f 29/20/52 16/27/53 28/16/54
f 18/17/55 17/25/56 15/22/57
f 15/22/58 17/25/59 14/15/60
f 14/15/61 17/25/62 16/27/63
f 24/28/64 26/29/65 20/30/66
f 20/30/67 26/29/68 22/24/69
f 21/26/70 19/31/71 17/25/72
f 17/25/73 19/31/74 16/27/75
f 28/32/76 20/30/77 18/17/78
f 18/17/79 20/30/80 22/24/81
f 19/31/82 20/30/83 16/27/84
f 16/27/85 20/30/86 28/32/87
f 26/29/88 24/28/89 25/33/90
f 25/33/91 24/28/92 23/34/93
f 23/34/94 24/28/95 19/31/96
f 19/31/97 24/28/98 20/30/99
f 22/24/100 26/29/101 21/26/102
f 21/26/103 26/29/104 25/33/105
f 21/26/106 25/33/107 19/31/108
f 19/31/109 25/33/110 23/34/111
f 27/21/112 18/17/113 15/22/114
