# This file uses centimeters as units for non-parametric coordinates.

mtllib PezC8.mtl
g default
v 0.023005 0.654765 -2.699950
v -0.023868 0.654902 -2.700087
v 0.017273 -0.966198 -2.679671
v -0.027860 -0.966065 -2.679804
v 0.062970 -0.759927 -0.656825
v 0.081467 -0.383166 -0.536747
v -0.084350 -0.759490 -0.657262
v -0.101329 -0.382624 -0.537287
v -0.093430 -0.009241 -0.472806
v 0.069483 0.286668 -0.536939
v 0.031486 -0.759355 -1.286599
v -0.049121 -0.759117 -1.286838
v -0.025952 -0.194681 -2.699209
v -0.044335 -0.047764 -1.207553
v 0.029238 0.370921 -1.365848
v 0.020050 -0.194816 -2.699075
v -0.085377 0.287128 -0.537396
v 0.075398 -0.009741 -0.472309
v -0.039706 0.371126 -1.366053
v 0.030442 -0.047985 -1.207332
v -0.022432 1.292742 -2.547135
v 0.024441 1.292605 -2.546998
v -0.033174 1.266774 -1.797269
v -0.136086 0.698019 0.295703
v -0.124802 0.343810 -0.047237
v -0.073269 0.656176 -0.427654
v -0.136590 0.033267 -0.021478
v -0.147879 -0.150828 -0.037959
v -0.138426 -0.628164 -0.238172
v -0.050808 -1.171265 -1.425145
v -0.036638 -1.426617 -2.359913
v 0.021423 -1.426787 -2.359742
v 0.031551 -1.171509 -1.424903
v 0.115331 -0.628915 -0.237421
v 0.126421 -0.151639 -0.037149
v 0.116126 0.032518 -0.020731
v 0.106330 0.343125 -0.046554
v 0.117674 0.697269 0.296454
v 0.058913 0.655785 -0.427262
v 0.030572 1.266584 -1.797080
vt 0.032300 0.559700
vt 0.032300 0.559700
vt 0.046400 0.675500
vt 0.046400 0.675500
vt 0.034200 0.265100
vt 0.063600 0.181500
vt 0.063600 0.181500
vt 0.034200 0.265100
vt 0.277300 0.413200
vt 0.258900 0.326500
vt 0.220300 0.302600
vt 0.231300 0.371100
vt 0.258900 0.326500
vt 0.220300 0.302600
vt 0.277300 0.413200
vt 0.231300 0.371100
vt 0.278800 0.446700
vt 0.237300 0.439000
vt 0.276400 0.503100
vt 0.231300 0.492800
vt 0.241400 0.559900
vt 0.308000 0.567400
vt 0.162300 0.302700
vt 0.149600 0.227800
vt 0.149600 0.227800
vt 0.162300 0.302700
vt 0.032400 0.405300
vt 0.169600 0.432000
vt 0.115400 0.670800
vt 0.155100 0.508100
vt 0.032400 0.405300
vt 0.276400 0.503100
vt 0.308000 0.567400
vt 0.241400 0.559900
vt 0.231300 0.492800
vt 0.278800 0.446700
vt 0.237300 0.439000
vt 0.115400 0.670800
vt 0.155100 0.508100
vt 0.169600 0.432000
vt 0.149600 0.227800
vt 0.149600 0.227800
vt 0.115400 0.670800
vt 0.241400 0.559900
vt 0.115400 0.670800
vt 0.241400 0.559900
vn 0.003531 0.233178 -0.972428
vn 0.003531 0.233178 -0.972428
vn 0.003531 0.233178 -0.972428
vn 0.003531 0.233178 -0.972428
vn 0.000740 -0.570481 -0.821310
vn 0.000740 -0.570481 -0.821310
vn 0.000740 -0.570481 -0.821310
vn 0.000740 -0.570481 -0.821310
vn 0.994175 0.005925 -0.107613
vn 0.994175 0.005925 -0.107613
vn 0.994175 0.005925 -0.107613
vn 0.994175 0.005925 -0.107613
vn -0.003708 -0.954376 0.298586
vn -0.003708 -0.954376 0.298586
vn -0.003708 -0.954376 0.298586
vn -0.003708 -0.954376 0.298586
vn -0.993466 0.011810 -0.113518
vn -0.993466 0.011810 -0.113518
vn -0.993466 0.011810 -0.113518
vn -0.993466 0.011810 -0.113518
vn -0.992890 0.049873 -0.108086
vn -0.992890 0.049873 -0.108086
vn -0.992890 0.049873 -0.108086
vn -0.992890 0.049873 -0.108086
vn 0.995312 0.050544 -0.082456
vn 0.995312 0.050544 -0.082456
vn 0.995312 0.050544 -0.082456
vn 0.995312 0.050544 -0.082456
vn 0.999937 0.002548 -0.010961
vn 0.999937 0.002548 -0.010961
vn 0.999937 0.002548 -0.010961
vn 0.999937 0.002548 -0.010961
vn -0.999821 0.008473 -0.016901
vn -0.999821 0.008473 -0.016901
vn -0.999821 0.008473 -0.016901
vn -0.999821 0.008473 -0.016901
vn -0.999884 0.005095 -0.014367
vn -0.999884 0.005095 -0.014367
vn -0.999884 0.005095 -0.014367
vn -0.999884 0.005095 -0.014367
vn 0.999975 -0.002963 -0.006374
vn 0.999975 -0.002963 -0.006374
vn 0.999975 -0.002963 -0.006374
vn 0.999975 -0.002963 -0.006374
vn 0.002928 -0.001040 -0.999995
vn 0.002928 -0.001040 -0.999995
vn 0.002928 -0.001040 -0.999995
vn 0.002928 -0.001040 -0.999995
vn -0.994487 0.056444 -0.088370
vn -0.994487 0.056444 -0.088370
vn -0.994487 0.056444 -0.088370
vn -0.994487 0.056444 -0.088370
vn 0.996422 0.013354 -0.083459
vn 0.996422 0.013354 -0.083459
vn 0.996422 0.013354 -0.083459
vn 0.996422 0.013354 -0.083459
vn -0.999920 0.002962 -0.012313
vn -0.999920 0.002962 -0.012313
vn -0.999920 0.002962 -0.012313
vn -0.999920 0.002962 -0.012313
vn 0.999980 -0.002132 -0.005986
vn 0.999980 -0.002132 -0.005986
vn 0.999980 -0.002132 -0.005986
vn 0.999980 -0.002132 -0.005986
vn -0.995812 0.019248 -0.089378
vn -0.995812 0.019248 -0.089378
vn -0.995812 0.019248 -0.089378
vn -0.995812 0.019248 -0.089378
vn -0.999922 0.003792 -0.011926
vn -0.999922 0.003792 -0.011926
vn -0.999922 0.003792 -0.011926
vn -0.999922 0.003792 -0.011926
vn 0.002877 -0.025156 -0.999679
vn 0.002877 -0.025156 -0.999679
vn 0.002877 -0.025156 -0.999679
vn 0.002877 -0.025156 -0.999679
vn 0.993793 0.043982 -0.102181
vn 0.993793 0.043982 -0.102181
vn 0.993793 0.043982 -0.102181
vn 0.993793 0.043982 -0.102181
vn 0.999964 -0.000829 -0.008427
vn 0.999964 -0.000829 -0.008427
vn 0.999964 -0.000829 -0.008427
vn 0.999964 -0.000829 -0.008427
vn 0.998728 -0.006979 -0.049935
vn 0.998728 -0.006979 -0.049935
vn 0.998728 -0.006979 -0.049935
vn 0.998728 -0.006979 -0.049935
vn -0.004009 -0.881351 0.472446
vn -0.004009 -0.881351 0.472446
vn -0.004009 -0.881351 0.472446
vn -0.004009 -0.881351 0.472446
vn -0.998437 -0.001062 -0.055870
vn -0.998437 -0.001062 -0.055870
vn -0.998438 -0.001062 -0.055870
vn -0.998438 -0.001062 -0.055870
vn -0.997023 0.021474 -0.074051
vn -0.997023 0.021474 -0.074051
vn -0.997023 0.021474 -0.074051
vn -0.997023 0.021474 -0.074051
vn 0.001491 0.913329 0.407221
vn 0.001491 0.913329 0.407221
vn 0.001491 0.913328 0.407221
vn 0.001491 0.913329 0.407221
vn 0.999507 -0.000683 -0.031394
vn 0.999507 -0.000683 -0.031394
vn 0.999507 -0.000683 -0.031394
vn 0.999507 -0.000683 -0.031394
vn -0.999289 0.005239 -0.037332
vn -0.999289 0.005239 -0.037332
vn -0.999289 0.005239 -0.037332
vn -0.999289 0.005239 -0.037332
vn 0.998483 -0.007098 -0.054605
vn 0.998483 -0.007098 -0.054605
vn 0.998483 -0.007098 -0.054605
vn 0.998483 -0.007098 -0.054605
vn -0.998165 -0.001185 -0.060539
vn -0.998165 -0.001185 -0.060539
vn -0.998165 -0.001185 -0.060539
vn -0.998165 -0.001185 -0.060539
vn 0.997555 0.015565 -0.068124
vn 0.997555 0.015565 -0.068124
vn 0.997555 0.015565 -0.068124
vn 0.997555 0.015565 -0.068124
s off
g polySurface1 TropicalFish14:TropicalFish14
usemtl TropicalFish14:___Default
f 1/1/1 2/2/2 21/3/3 22/4/4
f 3/5/5 32/6/6 31/7/7 4/8/8
f 35/9/9 34/10/10 5/11/11 6/12/12
f 29/13/13 7/14/14 5/11/15 34/10/16
f 28/15/17 8/16/18 7/14/19 29/13/20
f 28/15/21 27/17/22 9/18/23 8/16/24
f 37/19/25 10/20/26 39/21/27 38/22/28
f 11/23/29 33/24/30 32/6/31 3/5/32
f 30/25/33 12/26/34 4/8/35 31/7/36
f 13/27/37 4/8/38 12/26/39 14/28/40
f 40/29/41 15/30/42 1/1/43 22/4/44
f 16/31/45 13/27/46 2/2/47 1/1/48
f 25/32/49 24/33/50 26/34/51 17/35/52
f 37/19/53 36/36/54 18/37/55 10/20/56
f 23/38/57 21/3/58 2/2/59 19/39/60
f 1/1/61 15/30/62 20/40/63 16/31/64
f 25/32/65 17/35/66 9/18/67 27/17/68
f 2/2/69 13/27/70 14/28/71 19/39/72
f 3/5/73 4/8/74 13/27/75 16/31/76
f 35/9/77 6/12/78 18/37/79 36/36/80
f 16/31/81 20/40/82 11/23/83 3/5/84
f 33/41/85 11/23/86 6/12/87 5/11/88
f 30/25/89 33/24/90 5/11/91 7/14/92
f 8/16/93 12/26/94 30/42/95 7/14/96
f 14/28/97 12/26/98 8/16/99 9/18/100
f 40/29/101 23/38/102 26/34/103 39/21/104
f 10/20/105 15/30/106 40/43/107 39/44/108
f 23/45/109 19/39/110 17/35/111 26/46/112
f 20/40/113 15/30/114 10/20/115 18/37/116
f 17/35/117 19/39/118 14/28/119 9/18/120
f 6/12/121 11/23/122 20/40/123 18/37/124
