# This file uses centimeters as units for non-parametric coordinates.

mtllib PezC10.mtl
g default
v 0.023214 0.748410 -2.271645
v -0.014796 0.748408 -2.271645
v -0.014796 1.167004 -2.180809
v 0.023214 1.167004 -2.180809
v 0.022428 -0.258005 -2.104891
v 0.036088 -0.591724 -2.115173
v -0.027669 -0.591724 -2.115173
v -0.014009 -0.258005 -2.104891
v 0.131090 -0.460438 0.087820
v 0.189369 -0.059573 0.054063
v -0.122672 -0.460438 0.087820
v -0.180950 -0.059573 0.054063
v -0.166379 0.147623 0.069624
v 0.160230 0.255457 0.020704
v 0.131090 0.505183 0.192067
v 0.120547 -0.425430 -0.362676
v 0.148562 -0.066127 -0.407727
v -0.112128 -0.425430 -0.362676
v -0.140144 -0.066127 -0.407727
v -0.129114 0.149989 -0.365729
v 0.108593 0.545055 -0.350598
v -0.100175 0.545055 -0.350598
v -0.122672 0.505183 0.192067
v 0.126502 0.267974 -0.454518
v 0.107756 -0.072683 -0.869514
v 0.110004 -0.410115 -0.846005
v 0.078794 -0.506311 -1.541132
v 0.062186 -0.009550 -1.555659
v -0.101585 -0.410115 -0.846005
v -0.070375 -0.506311 -1.541132
v -0.099337 -0.072683 -0.869514
v -0.053768 -0.009550 -1.555659
v -0.091845 0.152355 -0.801081
v -0.054883 0.117455 -1.123685
v -0.077675 0.767776 -0.884941
v 0.086094 0.767776 -0.884941
v 0.064419 1.021160 -1.617807
v -0.056001 1.021160 -1.617807
v 0.092772 0.280493 -0.929739
v 0.064419 0.370825 -1.714032
v 0.063304 0.117455 -1.123685
v -0.056001 0.370825 -1.714032
v -0.151811 0.255457 0.020704
v 0.174800 0.147623 0.069624
v -0.118083 0.267974 -0.454518
v 0.137532 0.149989 -0.365729
v -0.084353 0.280493 -0.929739
v 0.100264 0.152355 -0.801081
v 0.023214 1.202377 -2.017126
v -0.014796 1.202377 -2.017126
v 0.023214 0.552041 -2.142324
v -0.014796 0.552041 -2.142324
v 0.022428 -0.094680 -1.937594
v -0.014009 -0.094680 -1.937594
v 0.036088 -0.632037 -1.956174
v -0.027669 -0.632037 -1.956174
vt 0.044300 0.599400
vt 0.044300 0.599400
vt 0.052800 0.671000
vt 0.052800 0.671000
vt 0.060000 0.427300
vt 0.059000 0.370300
vt 0.059000 0.370300
vt 0.060000 0.427300
vt 0.262400 0.461300
vt 0.265500 0.392700
vt 0.223300 0.398700
vt 0.219100 0.460200
vt 0.265500 0.392700
vt 0.223300 0.398700
vt 0.262400 0.461300
vt 0.219100 0.460200
vt 0.263800 0.496700
vt 0.223000 0.497100
vt 0.275300 0.557800
vt 0.224400 0.564600
vt 0.224400 0.564600
vt 0.275300 0.557800
vt 0.259200 0.515100
vt 0.214700 0.517300
vt 0.175800 0.459000
vt 0.178000 0.401300
vt 0.112800 0.384900
vt 0.111400 0.469800
vt 0.178000 0.401300
vt 0.112800 0.384900
vt 0.175800 0.459000
vt 0.111400 0.469800
vt 0.182200 0.497500
vt 0.151900 0.491500
vt 0.174300 0.602700
vt 0.174300 0.602700
vt 0.105600 0.646000
vt 0.105600 0.646000
vt 0.170100 0.519400
vt 0.096600 0.534900
vt 0.151900 0.491500
vt 0.096600 0.534900
vt 0.259200 0.515100
vt 0.214700 0.517300
vt 0.263800 0.496700
vt 0.223000 0.497100
vt 0.170100 0.519400
vt 0.182200 0.497500
vt 0.068200 0.677000
vt 0.068200 0.677000
vt 0.056400 0.565800
vt 0.056400 0.565800
vt 0.075600 0.455300
vt 0.075600 0.455300
vt 0.073900 0.363400
vt 0.073900 0.363400
vn 0.000000 0.212066 -0.977255
vn 0.000000 0.212066 -0.977255
vn 0.000000 0.212066 -0.977255
vn 0.000000 0.212066 -0.977255
vn 0.000000 0.030795 -0.999526
vn 0.000000 0.030795 -0.999526
vn 0.000000 0.030795 -0.999526
vn 0.000000 0.030795 -0.999526
vn 0.991149 -0.118682 -0.059490
vn 0.991149 -0.118682 -0.059490
vn 0.991149 -0.118682 -0.059490
vn 0.991149 -0.118682 -0.059490
vn 0.000000 -0.996994 -0.077475
vn 0.000000 -0.996994 -0.077475
vn 0.000000 -0.996994 -0.077475
vn 0.000000 -0.996994 -0.077475
vn -0.991149 -0.118682 -0.059490
vn -0.991149 -0.118682 -0.059490
vn -0.991149 -0.118682 -0.059490
vn -0.991149 -0.118682 -0.059490
vn -0.993628 0.071895 -0.086804
vn -0.993628 0.071895 -0.086804
vn -0.993628 0.071895 -0.086804
vn -0.993628 0.071895 -0.086804
vn 0.000000 0.997312 0.073277
vn 0.000000 0.997312 0.073277
vn 0.000000 0.997312 0.073277
vn 0.000000 0.997312 0.073277
vn 0.992254 0.114185 -0.048932
vn 0.992254 0.114185 -0.048932
vn 0.992254 0.114185 -0.048932
vn 0.992254 0.114185 -0.048932
vn 0.998232 0.020011 -0.055967
vn 0.998232 0.020011 -0.055967
vn 0.998232 0.020011 -0.055967
vn 0.998232 0.020011 -0.055967
vn 0.000000 -0.990560 0.137080
vn 0.000000 -0.990560 0.137080
vn 0.000000 -0.990560 0.137080
vn 0.000000 -0.990560 0.137080
vn -0.998232 0.020011 -0.055967
vn -0.998232 0.020011 -0.055967
vn -0.998232 0.020011 -0.055967
vn -0.998232 0.020011 -0.055967
vn -0.988779 0.127816 -0.077321
vn -0.988779 0.127816 -0.077321
vn -0.988779 0.127816 -0.077321
vn -0.988779 0.127816 -0.077321
vn 0.000000 0.945106 0.326765
vn 0.000000 0.945106 0.326765
vn 0.000000 0.945105 0.326765
vn 0.000000 0.945105 0.326765
vn 0.999480 0.009681 -0.030764
vn 0.999480 0.009681 -0.030764
vn 0.999480 0.009681 -0.030764
vn 0.999480 0.009681 -0.030764
vn 0.000000 -0.918940 -0.394398
vn 0.000000 -0.918940 -0.394398
vn 0.000000 -0.918940 -0.394398
vn 0.000000 -0.918940 -0.394398
vn -0.992254 0.114185 -0.048932
vn -0.992254 0.114185 -0.048932
vn -0.992254 0.114185 -0.048932
vn -0.992254 0.114185 -0.048932
vn 0.994874 0.066145 -0.076487
vn 0.994874 0.066145 -0.076487
vn 0.994874 0.066145 -0.076487
vn 0.994874 0.066145 -0.076487
vn -0.999480 0.009681 -0.030764
vn -0.999480 0.009681 -0.030764
vn -0.999480 0.009681 -0.030764
vn -0.999480 0.009681 -0.030764
vn 0.992578 -0.103563 -0.063754
vn 0.992578 -0.103563 -0.063754
vn 0.992578 -0.103563 -0.063754
vn 0.992577 -0.103563 -0.063754
vn -0.994875 0.066137 -0.076485
vn -0.994875 0.066137 -0.076485
vn -0.994875 0.066137 -0.076485
vn -0.994875 0.066137 -0.076485
vn -0.992576 -0.103573 -0.063756
vn -0.992576 -0.103573 -0.063756
vn -0.992576 -0.103573 -0.063756
vn -0.992576 -0.103573 -0.063756
vn 0.000000 0.959393 -0.282073
vn 0.000000 0.959393 -0.282073
vn 0.000000 0.959393 -0.282073
vn 0.000000 0.959393 -0.282073
vn 0.993628 0.071891 -0.086807
vn 0.993628 0.071891 -0.086807
vn 0.993628 0.071891 -0.086807
vn 0.993628 0.071891 -0.086807
vn 0.988780 0.127808 -0.077319
vn 0.988780 0.127808 -0.077319
vn 0.988780 0.127808 -0.077319
vn 0.988780 0.127808 -0.077319
vn 0.000000 0.910618 0.413250
vn 0.000000 0.910618 0.413250
vn 0.000000 0.910617 0.413250
vn 0.000000 0.910617 0.413250
vn 0.995611 0.015706 -0.092260
vn 0.995611 0.015706 -0.092260
vn 0.995611 0.015706 -0.092260
vn 0.995611 0.015706 -0.092260
vn 0.000000 -0.920955 -0.389669
vn 0.000000 -0.920955 -0.389669
vn 0.000000 -0.920955 -0.389669
vn 0.000000 -0.920955 -0.389669
vn -0.995611 0.015706 -0.092260
vn -0.995611 0.015706 -0.092260
vn -0.995611 0.015706 -0.092260
vn -0.995611 0.015706 -0.092260
vn 0.000000 0.976049 -0.217552
vn 0.000000 0.976049 -0.217552
vn 0.000000 0.976049 -0.217552
vn 0.000000 0.976049 -0.217552
vn 0.993427 0.029510 -0.110599
vn 0.993427 0.029510 -0.110599
vn 0.993427 0.029510 -0.110599
vn 0.993427 0.029510 -0.110599
vn 0.000000 -0.957053 0.289913
vn 0.000000 -0.957053 0.289913
vn 0.000000 -0.957053 0.289913
vn 0.000000 -0.957053 0.289913
vn -0.993427 0.029510 -0.110599
vn -0.993427 0.029510 -0.110599
vn -0.993427 0.029510 -0.110599
vn -0.993427 0.029510 -0.110599
vn 0.997614 -0.042267 -0.054594
vn 0.997614 -0.042267 -0.054594
vn 0.997614 -0.042267 -0.054594
vn 0.997614 -0.042267 -0.054594
vn 0.000000 -0.999498 -0.031671
vn 0.000000 -0.999498 -0.031671
vn 0.000000 -0.999498 -0.031671
vn 0.000000 -0.999498 -0.031671
vn -0.997614 -0.042267 -0.054594
vn -0.997614 -0.042267 -0.054594
vn -0.997614 -0.042267 -0.054594
vn -0.997614 -0.042267 -0.054594
vn -0.994200 0.063475 -0.086818
vn -0.994200 0.063475 -0.086818
vn -0.994200 0.063475 -0.086818
vn -0.994200 0.063475 -0.086818
vn 0.000000 0.923029 0.384729
vn 0.000000 0.923029 0.384729
vn 0.000000 0.923029 0.384729
vn 0.000000 0.923029 0.384729
vn 0.998096 0.041059 -0.046023
vn 0.998096 0.041059 -0.046023
vn 0.998096 0.041059 -0.046023
vn 0.998096 0.041059 -0.046023
vn -0.998096 0.041059 -0.046023
vn -0.998096 0.041059 -0.046023
vn -0.998096 0.041059 -0.046023
vn -0.998096 0.041059 -0.046023
vn 0.996962 0.006444 -0.077628
vn 0.996962 0.006444 -0.077628
vn 0.996962 0.006444 -0.077628
vn 0.996962 0.006444 -0.077628
vn -0.996962 0.006444 -0.077628
vn -0.996962 0.006444 -0.077628
vn -0.996962 0.006444 -0.077628
vn -0.996962 0.006444 -0.077628
vn 0.994200 0.063475 -0.086818
vn 0.994200 0.063475 -0.086818
vn 0.994200 0.063475 -0.086818
vn 0.994200 0.063475 -0.086818
vn 0.000000 0.977437 -0.211227
vn 0.000000 0.977437 -0.211227
vn 0.000000 0.977437 -0.211227
vn 0.000000 0.977437 -0.211227
vn 1.000000 0.000000 0.000000
vn 1.000000 0.000000 0.000000
vn 1.000000 0.000000 0.000000
vn 1.000000 0.000000 0.000000
vn 0.000024 -0.550006 -0.835161
vn 0.000024 -0.550006 -0.835161
vn 0.000024 -0.550006 -0.835161
vn 0.000024 -0.550006 -0.835161
vn -1.000000 0.000000 0.000000
vn -1.000000 0.000000 0.000000
vn -1.000000 0.000000 0.000000
vn -1.000000 0.000000 0.000000
vn 0.000000 0.715551 -0.698560
vn 0.000000 0.715551 -0.698560
vn 0.000000 0.715551 -0.698560
vn 0.000000 0.715551 -0.698560
vn 0.999424 0.031741 -0.011966
vn 0.999425 0.031741 -0.011966
vn 0.999425 0.031741 -0.011966
vn 0.999424 0.031741 -0.011966
vn 0.000000 -0.969329 -0.245765
vn 0.000000 -0.969329 -0.245765
vn 0.000000 -0.969329 -0.245765
vn 0.000000 -0.969329 -0.245765
vn -0.999424 0.031741 -0.011966
vn -0.999424 0.031741 -0.011966
vn -0.999424 0.031741 -0.011966
vn -0.999424 0.031741 -0.011966
s off
g polySurface2 TropicalFish07:TropicalFish07
usemtl TropicalFish07:___Default
f 1/1/1 2/2/2 3/3/3 4/4/4
f 5/5/5 6/6/6 7/7/7 8/8/8
f 10/9/9 9/10/10 16/11/11 17/12/12
f 11/13/13 18/14/14 16/11/15 9/10/16
f 12/15/17 19/16/18 18/14/19 11/13/20
f 12/15/21 13/17/22 20/18/23 19/16/24
f 15/19/25 21/20/26 22/21/27 23/22/28
f 14/23/29 24/24/30 21/20/31 15/19/32
f 25/25/33 26/26/34 27/27/35 28/28/36
f 26/26/37 29/29/38 30/30/39 27/27/40
f 29/29/41 31/31/42 32/32/43 30/30/44
f 33/33/45 34/34/46 32/32/47 31/31/48
f 35/35/49 36/36/50 37/37/51 38/38/52
f 36/36/53 39/39/54 40/40/55 37/37/56
f 41/41/57 34/34/58 42/42/59 40/40/60
f 43/43/61 23/22/62 22/21/63 45/44/64
f 14/23/65 44/45/66 46/46/67 24/24/68
f 35/35/69 38/38/70 42/42/71 47/47/72
f 39/39/73 48/48/74 41/41/75 40/40/76
f 43/43/77 45/44/78 20/18/79 13/17/80
f 47/47/81 42/42/82 34/34/83 33/33/84
f 28/28/85 32/32/86 34/34/87 41/41/88
f 10/9/89 17/12/90 46/46/91 44/45/92
f 48/48/93 25/25/94 28/28/95 41/41/96
f 38/38/97 37/37/98 49/49/99 50/50/100
f 37/37/101 40/40/102 51/51/103 49/49/104
f 40/40/105 42/42/106 52/52/107 51/51/108
f 42/42/109 38/38/110 50/50/111 52/52/112
f 32/32/113 28/28/114 53/53/115 54/54/116
f 28/28/117 27/27/118 55/55/119 53/53/120
f 27/27/121 30/30/122 56/56/123 55/55/124
f 30/30/125 32/32/126 54/54/127 56/56/128
f 26/26/129 25/25/130 17/12/131 16/11/132
f 29/29/133 26/26/134 16/11/135 18/14/136
f 19/16/137 31/31/138 29/29/139 18/14/140
f 33/33/141 31/31/142 19/16/143 20/18/144
f 36/36/145 35/35/146 22/21/147 21/20/148
f 24/24/149 39/39/150 36/36/151 21/20/152
f 35/35/153 47/47/154 45/44/155 22/21/156
f 48/48/157 39/39/158 24/24/159 46/46/160
f 45/44/161 47/47/162 33/33/163 20/18/164
f 17/12/165 25/25/166 48/48/167 46/46/168
f 50/50/169 49/49/170 4/4/171 3/3/172
f 49/49/173 51/51/174 1/1/175 4/4/176
f 51/51/177 52/52/178 2/2/179 1/1/180
f 52/52/181 50/50/182 3/3/183 2/2/184
f 54/54/185 53/53/186 5/5/187 8/8/188
f 5/5/189 53/53/190 55/55/191 6/6/192
f 55/55/193 56/56/194 7/7/195 6/6/196
f 56/56/197 54/54/198 8/8/199 7/7/200
