# This file uses centimeters as units for non-parametric coordinates.

mtllib PezC9.mtl
g default
v 0.046089 -0.072799 -2.349675
v -0.074334 -0.072799 -2.349675
v 0.043854 -0.613288 -2.098728
v 0.060463 -1.216919 -1.733851
v -0.088706 -1.216919 -1.733851
v -0.072098 -0.613288 -2.098728
v 0.091673 -0.647156 -0.402689
v 0.145098 -0.205325 -0.577133
v -0.119916 -0.647156 -0.402689
v -0.173343 -0.205325 -0.577133
v -0.146628 0.191801 -0.674794
v 0.118385 0.191801 -0.674794
v 0.091673 -0.840717 -0.704054
v 0.091673 -0.314525 -0.997416
v -0.119916 -0.840717 -0.704054
v -0.119916 -0.314525 -0.997416
v -0.119916 0.215631 -1.097427
v 0.091673 0.215631 -1.097427
v 0.091673 -1.110222 -1.183790
v 0.060463 -0.526808 -1.614893
v -0.119916 -1.110222 -1.183790
v -0.088706 -0.526808 -1.614893
v -0.072098 0.173966 -1.785602
v 0.043856 0.173966 -1.785602
v -0.074334 0.581020 -2.384328
v 0.046089 0.581020 -2.384328
v -0.072098 0.717514 -1.874289
v -0.119916 0.637078 -1.056513
v -0.119916 0.556119 -0.671657
v -0.141002 0.411593 -0.142832
v -0.170142 0.126085 -0.037693
v -0.199281 -0.059854 0.097269
v -0.141002 -0.290900 0.183879
v 0.112759 -0.290900 0.183879
v 0.171038 -0.059854 0.097269
v 0.141899 0.126085 -0.037693
v 0.112759 0.411593 -0.142832
v 0.091673 0.556117 -0.671657
v 0.091673 0.637078 -1.056513
v 0.043856 0.717514 -1.874289
v -0.074334 0.581020 -2.384328
v 0.046089 0.581020 -2.384328
v 0.112760 0.411593 -0.142832
v -0.141002 0.411593 -0.142832
v 0.091673 0.556117 -0.671657
v -0.119916 0.556119 -0.671657
v 0.091673 0.637078 -1.056513
v -0.119916 0.637078 -1.056513
v 0.043856 0.717514 -1.874289
v -0.072098 0.717514 -1.874289
vt 0.012700 0.432200
vt 0.012700 0.432200
vt 0.009300 0.548900
vt 0.009300 0.548900
vt 0.036700 0.335800
vt 0.071600 0.228100
vt 0.071600 0.228100
vt 0.036700 0.335800
vt 0.246900 0.434500
vt 0.255200 0.393300
vt 0.199000 0.329700
vt 0.182300 0.408600
vt 0.255200 0.393300
vt 0.199000 0.329700
vt 0.246900 0.434500
vt 0.182300 0.408600
vt 0.233900 0.467700
vt 0.173000 0.479400
vt 0.223900 0.518600
vt 0.233900 0.467700
vt 0.173000 0.479400
vt 0.173300 0.544400
vt 0.170200 0.295200
vt 0.142100 0.389100
vt 0.170200 0.295200
vt 0.142100 0.389100
vt 0.132500 0.483700
vt 0.132500 0.483700
vt 0.136400 0.558900
vt 0.124200 0.247100
vt 0.083000 0.351200
vt 0.124200 0.247100
vt 0.083000 0.351200
vt 0.066600 0.476200
vt 0.066600 0.476200
vt 0.058200 0.573200
vt 0.223900 0.518600
vt 0.173300 0.544400
vt 0.136400 0.558900
vt 0.058200 0.573200
vt 0.223900 0.518600
vt 0.223900 0.518600
vt 0.173300 0.544400
vt 0.173300 0.544400
vt 0.136400 0.558900
vt 0.136400 0.558900
vt 0.058200 0.573200
vt 0.058200 0.573200
vt 0.009300 0.548900
vt 0.009300 0.548900
vn 0.000000 -0.052927 -0.998598
vn 0.000000 -0.052927 -0.998598
vn 0.000000 -0.052927 -0.998598
vn 0.000000 -0.052927 -0.998598
vn 0.000000 -0.517305 -0.855801
vn 0.000000 -0.517305 -0.855801
vn 0.000000 -0.517305 -0.855801
vn 0.000000 -0.517305 -0.855801
vn 0.987699 -0.154419 0.024607
vn 0.987699 -0.154419 0.024607
vn 0.987699 -0.154419 0.024607
vn 0.987699 -0.154419 0.024607
vn 0.000000 -0.854706 0.519112
vn 0.000000 -0.854706 0.519112
vn 0.000000 -0.854706 0.519112
vn 0.000000 -0.854706 0.519112
vn -0.987699 -0.154422 0.024609
vn -0.987699 -0.154422 0.024609
vn -0.987699 -0.154422 0.024609
vn -0.987699 -0.154422 0.024609
vn -0.996013 0.078522 -0.042331
vn -0.996013 0.078522 -0.042331
vn -0.996013 0.078522 -0.042331
vn -0.996013 0.078522 -0.042331
vn 0.996361 0.081974 -0.023332
vn 0.996361 0.081974 -0.023332
vn 0.996361 0.081974 -0.023332
vn 0.996361 0.081974 -0.023332
vn 0.996266 -0.075349 -0.042143
vn 0.996266 -0.075349 -0.042143
vn 0.996266 -0.075349 -0.042143
vn 0.996266 -0.075349 -0.042143
vn 0.000000 -0.841399 0.540414
vn 0.000000 -0.841399 0.540414
vn 0.000000 -0.841399 0.540414
vn 0.000000 -0.841399 0.540414
vn -0.996266 -0.075352 -0.042144
vn -0.996266 -0.075352 -0.042144
vn -0.996266 -0.075352 -0.042144
vn -0.996266 -0.075352 -0.042144
vn -0.995397 0.008323 -0.095479
vn -0.995397 0.008323 -0.095479
vn -0.995397 0.008323 -0.095479
vn -0.995397 0.008323 -0.095479
vn 0.998963 0.035554 -0.028432
vn 0.998963 0.035554 -0.028432
vn 0.998963 0.035554 -0.028432
vn 0.998963 0.035554 -0.028432
vn 0.999470 0.007422 -0.031689
vn 0.999470 0.007422 -0.031689
vn 0.999470 0.007422 -0.031689
vn 0.999470 0.007422 -0.031689
vn 0.000000 -0.871844 0.489783
vn 0.000000 -0.871844 0.489783
vn 0.000000 -0.871844 0.489783
vn 0.000000 -0.871844 0.489783
vn -0.999470 0.007422 -0.031689
vn -0.999470 0.007422 -0.031689
vn -0.999470 0.007422 -0.031689
vn -0.999470 0.007422 -0.031689
vn -0.998171 0.000172 -0.060450
vn -0.998171 0.000172 -0.060450
vn -0.998171 0.000172 -0.060450
vn -0.998171 0.000172 -0.060450
vn 0.997980 -0.003141 -0.063457
vn 0.997980 -0.003141 -0.063457
vn 0.997980 -0.003141 -0.063457
vn 0.997980 -0.003141 -0.063457
vn 0.998826 0.008228 -0.047735
vn 0.998826 0.008228 -0.047735
vn 0.998826 0.008228 -0.047735
vn 0.998826 0.008228 -0.047735
vn 0.000000 -0.981702 0.190424
vn 0.000000 -0.981702 0.190424
vn 0.000000 -0.981702 0.190424
vn 0.000000 -0.981702 0.190424
vn -0.998826 0.008228 -0.047733
vn -0.998826 0.008228 -0.047733
vn -0.998826 0.008228 -0.047733
vn -0.998826 0.008228 -0.047733
vn -0.999857 0.006244 -0.015699
vn -0.999857 0.006244 -0.015699
vn -0.999857 0.006244 -0.015699
vn -0.999857 0.006244 -0.015699
vn 0.999992 0.000413 0.004010
vn 0.999992 0.000413 0.004010
vn 0.999992 0.000413 0.004010
vn 0.999992 0.000413 0.004010
vn 0.000000 -0.421120 -0.907005
vn 0.000000 -0.421120 -0.907005
vn 0.000000 -0.421120 -0.907005
vn 0.000000 -0.421120 -0.907005
vn -0.996361 0.081973 -0.023332
vn -0.996361 0.081973 -0.023332
vn -0.996361 0.081973 -0.023332
vn -0.996361 0.081973 -0.023332
vn 0.996013 0.078518 -0.042332
vn 0.996013 0.078518 -0.042332
vn 0.996013 0.078518 -0.042332
vn 0.996013 0.078518 -0.042332
vn -0.998963 0.035554 -0.028432
vn -0.998963 0.035554 -0.028432
vn -0.998963 0.035554 -0.028432
vn -0.998963 0.035554 -0.028432
vn 0.995397 0.008321 -0.095476
vn 0.995397 0.008321 -0.095476
vn 0.995397 0.008321 -0.095476
vn 0.995397 0.008321 -0.095476
vn -0.997980 -0.003142 -0.063457
vn -0.997980 -0.003142 -0.063457
vn -0.997980 -0.003142 -0.063457
vn -0.997980 -0.003142 -0.063457
vn 0.998171 0.000172 -0.060450
vn 0.998171 0.000172 -0.060450
vn 0.998171 0.000172 -0.060450
vn 0.998171 0.000172 -0.060450
vn -0.999992 0.000413 0.004014
vn -0.999992 0.000413 0.004014
vn -0.999992 0.000413 0.004014
vn -0.999992 0.000413 0.004014
vn 0.999857 0.006243 -0.015703
vn 0.999857 0.006243 -0.015703
vn 0.999857 0.006243 -0.015703
vn 0.999857 0.006243 -0.015703
vn 0.000004 0.964625 0.263627
vn 0.000004 0.964625 0.263627
vn 0.000004 0.964625 0.263627
vn 0.000004 0.964625 0.263627
vn 0.000005 0.978582 0.205859
vn 0.000005 0.978582 0.205859
vn 0.000005 0.978582 0.205859
vn 0.000005 0.978582 0.205859
vn 0.000000 0.995198 0.097887
vn 0.000000 0.995198 0.097887
vn 0.000000 0.995198 0.097887
vn 0.000000 0.995198 0.097887
vn 0.000000 0.966007 -0.258518
vn 0.000000 0.966007 -0.258518
vn 0.000000 0.966007 -0.258518
vn 0.000000 0.966007 -0.258518
s off
g polySurface2
usemtl TropicalFish08:___Default
f 1/1/1 2/2/2 25/3/3 26/4/4
f 3/5/5 4/6/6 5/7/7 6/8/8
f 35/9/9 34/10/10 7/11/11 8/12/12
f 34/10/13 33/13/14 9/14/15 7/11/16
f 33/13/17 32/15/18 10/16/19 9/14/20
f 31/17/21 11/18/22 10/16/23 32/15/24
f 37/19/25 36/20/26 12/21/27 38/22/28
f 8/12/29 7/11/30 13/23/31 14/24/32
f 7/11/33 9/14/34 15/25/35 13/23/36
f 9/14/37 10/16/38 16/26/39 15/25/40
f 11/18/41 17/27/42 16/26/43 10/16/44
f 38/22/45 12/21/46 18/28/47 39/29/48
f 14/24/49 13/23/50 19/30/51 20/31/52
f 13/23/53 15/25/54 21/32/55 19/30/56
f 15/25/57 16/26/58 22/33/59 21/32/60
f 17/27/61 23/34/62 22/33/63 16/26/64
f 39/29/65 18/28/66 24/35/67 40/36/68
f 20/31/69 19/30/70 4/6/71 3/5/72
f 19/30/73 21/32/74 5/7/75 4/6/76
f 21/32/77 22/33/78 6/8/79 5/7/80
f 23/34/81 2/2/82 6/8/83 22/33/84
f 40/36/85 24/35/86 1/1/87 26/4/88
f 3/5/89 6/8/90 2/2/91 1/1/92
f 30/37/93 29/38/94 11/18/95 31/17/96
f 36/20/97 35/9/98 8/12/99 12/21/100
f 29/38/101 28/39/102 17/27/103 11/18/104
f 12/21/105 8/12/106 14/24/107 18/28/108
f 28/39/109 27/40/110 23/34/111 17/27/112
f 18/28/113 14/24/114 20/31/115 24/35/116
f 27/40/117 25/3/118 2/2/119 23/34/120
f 24/35/121 20/31/122 3/5/123 1/1/124
f 44/41/125 43/42/126 45/43/127 46/44/128
f 46/44/129 45/43/130 47/45/131 48/46/132
f 48/46/133 47/45/134 49/47/135 50/48/136
f 50/48/137 49/47/138 42/49/139 41/50/140
