# This file uses centimeters as units for non-parametric coordinates.

mtllib PezC3.mtl
g default
v 0.014109 0.669243 -2.233950
v 0.014109 1.323062 -2.200798
v -0.038202 1.323062 -2.200798
v -0.038202 0.669243 -2.233950
v 0.014109 -0.401097 -2.172764
v -0.038202 -0.401097 -2.172764
v -0.074781 -1.476161 -1.868994
v 0.050685 -1.476161 -1.868994
v 0.173113 0.020757 0.053755
v 0.114834 -0.338032 0.034267
v -0.138928 -0.338032 0.034267
v -0.197206 0.020757 0.053755
v -0.168067 0.170820 0.055208
v 0.114834 0.320883 0.056661
v 0.143974 0.170820 0.055208
v 0.147172 0.027918 -0.260740
v 0.093748 -0.422772 -0.242688
v -0.117841 -0.422772 -0.242688
v -0.171268 0.027918 -0.260740
v -0.144556 0.283510 -0.318388
v -0.138928 0.320883 0.056661
v -0.117841 0.539100 -0.376038
v 0.093748 0.539100 -0.376038
v 0.120460 0.283510 -0.318388
v 0.016859 -0.106995 -0.896243
v 0.016859 -0.848818 -0.792937
v -0.040954 -0.848818 -0.792937
v -0.040954 -0.106995 -0.896243
v -0.040954 0.423161 -0.996254
v -0.040954 0.953319 -1.096264
v 0.016859 0.953319 -1.096264
v 0.016859 0.423161 -0.996254
v 0.050685 -0.214827 -1.741512
v 0.050685 -1.442168 -1.667777
v -0.074781 -1.442168 -1.667777
v -0.074781 -0.214827 -1.741512
v -0.074781 0.558149 -1.777506
v -0.074781 1.331125 -1.813505
v 0.050685 1.331125 -1.813505
v 0.050685 0.558149 -1.777506
vt 0.065600 0.541800
vt 0.068600 0.603200
vt 0.068600 0.603200
vt 0.065600 0.541800
vt 0.099300 0.340400
vt 0.099300 0.340400
vt 0.071200 0.441300
vt 0.071200 0.441300
vt 0.275400 0.447200
vt 0.249800 0.439300
vt 0.248100 0.481600
vt 0.277200 0.480900
vt 0.275400 0.447200
vt 0.249800 0.439300
vt 0.277200 0.480900
vt 0.248100 0.481600
vt 0.242800 0.505600
vt 0.277400 0.495000
vt 0.277400 0.495000
vt 0.242800 0.505600
vt 0.237500 0.529600
vt 0.277500 0.509100
vt 0.198900 0.399300
vt 0.189300 0.468900
vt 0.198900 0.399300
vt 0.189300 0.468900
vt 0.180100 0.518700
vt 0.170800 0.568400
vt 0.170800 0.568400
vt 0.237500 0.529600
vt 0.180100 0.518700
vt 0.117900 0.343600
vt 0.111100 0.458800
vt 0.117900 0.343600
vt 0.111100 0.458800
vt 0.107800 0.531400
vt 0.104500 0.603900
vt 0.104500 0.603900
vt 0.107800 0.531400
vt 0.277500 0.509100
vn 0.000000 0.050640 -0.998717
vn 0.000000 0.050640 -0.998717
vn 0.000000 0.050640 -0.998717
vn 0.000000 0.050640 -0.998717
vn 0.000000 -0.271914 -0.962321
vn 0.000000 -0.271914 -0.962322
vn 0.000000 -0.271914 -0.962322
vn 0.000000 -0.271914 -0.962322
vn 0.988798 -0.136340 -0.060737
vn 0.988798 -0.136340 -0.060737
vn 0.988798 -0.136340 -0.060737
vn 0.988798 -0.136340 -0.060737
vn 0.000000 -0.956241 0.292581
vn 0.000000 -0.956241 0.292581
vn 0.000000 -0.956241 0.292581
vn 0.000000 -0.956241 0.292581
vn -0.988798 -0.136343 -0.060733
vn -0.988798 -0.136343 -0.060733
vn -0.988798 -0.136343 -0.060733
vn -0.988798 -0.136343 -0.060733
vn -0.990372 0.129624 -0.048595
vn -0.990372 0.129624 -0.048595
vn -0.990372 0.129624 -0.048595
vn -0.990372 0.129624 -0.048595
vn 0.990630 0.136566 0.001251
vn 0.990630 0.136566 0.001251
vn 0.990630 0.136566 0.001251
vn 0.990630 0.136566 0.001251
vn 0.987717 -0.058975 -0.144698
vn 0.987717 -0.058975 -0.144698
vn 0.987717 -0.058975 -0.144698
vn 0.987717 -0.058975 -0.144698
vn 0.000000 -0.790691 0.612215
vn 0.000000 -0.790691 0.612215
vn 0.000000 -0.790691 0.612215
vn 0.000000 -0.790691 0.612215
vn -0.987717 -0.058977 -0.144695
vn -0.987717 -0.058977 -0.144695
vn -0.987717 -0.058977 -0.144695
vn -0.987717 -0.058977 -0.144695
vn -0.984505 -0.001714 -0.175350
vn -0.984505 -0.001714 -0.175350
vn -0.984505 -0.001714 -0.175350
vn -0.984505 -0.001714 -0.175350
vn 0.000000 0.866860 0.498551
vn 0.000000 0.866860 0.498551
vn 0.000000 0.866860 0.498551
vn 0.000000 0.866860 0.498551
vn 0.992165 0.008722 -0.124631
vn 0.992165 0.008722 -0.124631
vn 0.992165 0.008722 -0.124631
vn 0.992165 0.008722 -0.124631
vn 0.999275 0.003409 0.037913
vn 0.999275 0.003409 0.037913
vn 0.999275 0.003409 0.037913
vn 0.999275 0.003409 0.037913
vn 0.000000 -0.827604 0.561312
vn 0.000000 -0.827604 0.561312
vn 0.000000 -0.827604 0.561312
vn 0.000000 -0.827604 0.561312
vn -0.999275 0.003409 0.037913
vn -0.999275 0.003409 0.037913
vn -0.999275 0.003409 0.037913
vn -0.999275 0.003409 0.037913
vn -0.999124 0.004345 0.041630
vn -0.999124 0.004345 0.041630
vn -0.999124 0.004345 0.041630
vn -0.999124 0.004345 0.041630
vn 0.000000 0.884760 0.466048
vn 0.000000 0.884760 0.466048
vn 0.000000 0.884760 0.466048
vn 0.000000 0.884760 0.466048
vn 0.998894 0.004881 0.046768
vn 0.998894 0.004881 0.046768
vn 0.998894 0.004881 0.046768
vn 0.998894 0.004881 0.046768
vn 0.998190 0.006047 -0.059833
vn 0.998190 0.006047 -0.059833
vn 0.998190 0.006047 -0.059833
vn 0.998190 0.006047 -0.059833
vn 0.000000 -0.986028 0.166578
vn 0.000000 -0.986028 0.166578
vn 0.000000 -0.986028 0.166578
vn 0.000000 -0.986028 0.166578
vn -0.998190 0.006048 -0.059836
vn -0.998190 0.006048 -0.059836
vn -0.998190 0.006048 -0.059836
vn -0.998190 0.006048 -0.059836
vn -0.996642 -0.004311 -0.081770
vn -0.996642 -0.004311 -0.081770
vn -0.996642 -0.004311 -0.081770
vn -0.996642 -0.004311 -0.081770
vn 0.000000 0.999783 -0.020816
vn 0.000000 0.999783 -0.020816
vn 0.000000 0.999783 -0.020816
vn 0.000000 0.999783 -0.020816
vn 0.996261 -0.000172 -0.086398
vn 0.996261 -0.000172 -0.086398
vn 0.996261 -0.000172 -0.086398
vn 0.996261 -0.000172 -0.086398
vn 0.000000 -0.057072 -0.998370
vn 0.000000 -0.057072 -0.998370
vn 0.000000 -0.057072 -0.998370
vn 0.000000 -0.057072 -0.998370
vn -0.990629 0.136572 0.001256
vn -0.990629 0.136572 0.001256
vn -0.990629 0.136572 0.001256
vn -0.990629 0.136572 0.001256
vn 0.990372 0.129624 -0.048601
vn 0.990371 0.129624 -0.048601
vn 0.990372 0.129624 -0.048601
vn 0.990372 0.129624 -0.048601
vn -0.992165 0.008725 -0.124628
vn -0.992165 0.008725 -0.124628
vn -0.992165 0.008725 -0.124628
vn -0.992165 0.008725 -0.124628
vn 0.984505 -0.001714 -0.175350
vn 0.984505 -0.001714 -0.175350
vn 0.984505 -0.001714 -0.175350
vn 0.984505 -0.001714 -0.175350
vn -0.998894 0.004881 0.046768
vn -0.998894 0.004881 0.046768
vn -0.998894 0.004881 0.046768
vn -0.998894 0.004881 0.046768
vn 0.999124 0.004345 0.041630
vn 0.999124 0.004345 0.041630
vn 0.999124 0.004345 0.041630
vn 0.999124 0.004345 0.041630
vn -0.996260 -0.000172 -0.086403
vn -0.996260 -0.000172 -0.086403
vn -0.996260 -0.000172 -0.086403
vn -0.996260 -0.000172 -0.086403
vn 0.996642 -0.004311 -0.081766
vn 0.996642 -0.004311 -0.081766
vn 0.996642 -0.004311 -0.081766
vn 0.996642 -0.004311 -0.081766
s off
g polySurface2 TropicalFish01:TropicalFish01
usemtl TropicalFish01:___Default
f 4/1/1 3/2/2 2/3/3 1/4/4
f 8/5/5 7/6/6 6/7/7 5/8/8
f 10/9/9 17/10/10 16/11/11 9/12/12
f 11/13/13 18/14/14 17/10/15 10/9/16
f 12/15/17 19/16/18 18/14/19 11/13/20
f 20/17/21 19/16/22 12/15/23 13/18/24
f 15/19/25 24/20/26 23/21/27 14/22/28
f 17/10/29 26/23/30 25/24/31 16/11/32
f 18/14/33 27/25/34 26/23/35 17/10/36
f 19/16/37 28/26/38 27/25/39 18/14/40
f 29/27/41 28/26/42 19/16/43 20/17/44
f 23/21/45 31/28/46 30/29/47 22/30/48
f 24/20/49 32/31/50 31/28/51 23/21/52
f 26/23/53 34/32/54 33/33/55 25/24/56
f 27/25/57 35/34/58 34/32/59 26/23/60
f 28/26/61 36/35/62 35/34/63 27/25/64
f 37/36/65 36/35/66 28/26/67 29/27/68
f 31/28/69 39/37/70 38/38/71 30/29/72
f 32/31/73 40/39/74 39/37/75 31/28/76
f 34/32/77 8/5/78 5/8/79 33/33/80
f 35/34/81 7/6/82 8/5/83 34/32/84
f 36/35/85 6/7/86 7/6/87 35/34/88
f 4/1/89 6/7/90 36/35/91 37/36/92
f 39/37/93 2/3/94 3/2/95 38/38/96
f 40/39/97 1/4/98 2/3/99 39/37/100
f 6/7/101 4/1/102 1/4/103 5/8/104
f 22/30/105 20/17/106 13/18/107 21/40/108
f 9/12/109 16/11/110 24/20/111 15/19/112
f 30/29/113 29/27/114 20/17/115 22/30/116
f 16/11/117 25/24/118 32/31/119 24/20/120
f 38/38/121 37/36/122 29/27/123 30/29/124
f 25/24/125 33/33/126 40/39/127 32/31/128
f 3/2/129 4/1/130 37/36/131 38/38/132
f 33/33/133 5/8/134 1/4/135 40/39/136
