# This file uses centimeters as units for non-parametric coordinates.

mtllib PezC12.mtl
g default
v -0.136644 -0.220154 -0.089426
v -0.109230 -0.465853 -0.154555
v -0.124667 0.132954 -0.020864
v -0.095734 -0.901014 -1.471754
v -0.092266 -0.292192 -1.229929
v -0.044132 -0.684900 -2.388824
v -0.062262 -1.101864 -2.348888
v -0.043339 -0.021828 -2.299776
v -0.083858 0.088333 -1.125039
v -0.094018 0.903629 0.235557
v -0.112861 0.446553 0.060041
v -0.065068 1.321785 -1.278493
v -0.039290 1.579450 -2.249725
v -0.042394 0.652280 -2.244553
v -0.074441 0.507203 -1.283461
v -0.078798 1.100844 -0.755903
v -0.114455 -0.256172 -0.659678
v -0.102482 -0.683435 -0.813155
v -0.103958 0.151242 -0.623455
v -0.093094 0.508854 -0.746893
v 0.154080 -0.221122 -0.088462
v 0.125466 -0.466633 -0.153777
v 0.143997 0.132060 -0.019972
v 0.117875 -0.901727 -1.471046
v 0.088928 -1.102368 -2.348386
v 0.073842 -0.685292 -2.388434
v 0.116846 -0.292888 -1.229233
v 0.076870 -0.022229 -2.299375
v 0.110271 0.087686 -1.124394
v 0.083152 1.579043 -2.249318
v 0.100723 1.321233 -1.277943
v 0.133740 0.445732 0.060859
v 0.116768 0.902927 0.236257
v 0.104704 0.506607 -1.282866
v 0.080048 0.651873 -2.244146
v 0.109489 1.100216 -0.755277
v 0.121671 -0.684181 -0.812410
v 0.135463 -0.257005 -0.658849
v 0.127438 0.150473 -0.622688
v 0.119781 0.508146 -0.746187
vt 0.111600 0.355800
vt 0.134200 0.411100
vt 0.026200 0.375400
vt 0.029900 0.337600
vt 0.034500 0.435600
vt 0.143900 0.445600
vt 0.129600 0.557600
vt 0.039100 0.581000
vt 0.039600 0.496800
vt 0.129200 0.483700
vt 0.187300 0.414300
vt 0.173000 0.375600
vt 0.234400 0.395300
vt 0.240500 0.417600
vt 0.190700 0.451300
vt 0.246800 0.449700
vt 0.270700 0.519600
vt 0.178300 0.537500
vt 0.179200 0.483800
vt 0.254400 0.478100
vt 0.111600 0.355800
vt 0.029900 0.337600
vt 0.026200 0.375400
vt 0.134200 0.411100
vt 0.034500 0.435600
vt 0.143900 0.445600
vt 0.039100 0.581000
vt 0.129600 0.557600
vt 0.129200 0.483700
vt 0.039600 0.496800
vt 0.173000 0.375600
vt 0.234400 0.395300
vt 0.187300 0.414300
vt 0.240500 0.417600
vt 0.190700 0.451300
vt 0.246800 0.449700
vt 0.270700 0.519600
vt 0.254400 0.478100
vt 0.179200 0.483800
vt 0.178300 0.537500
vn -0.998331 0.030655 -0.048951
vn -0.998331 0.030655 -0.048951
vn -0.998331 0.030655 -0.048951
vn -0.998331 0.030655 -0.048951
vn -0.999001 0.016521 -0.041512
vn -0.999002 0.016521 -0.041512
vn -0.999001 0.016521 -0.041512
vn -0.999001 0.016521 -0.041512
vn -0.999570 0.007157 -0.028421
vn -0.999570 0.007157 -0.028421
vn -0.999570 0.007157 -0.028421
vn -0.999570 0.007157 -0.028421
vn -0.999407 0.006278 -0.033853
vn -0.999407 0.006278 -0.033853
vn -0.999407 0.006278 -0.033853
vn -0.999407 0.006278 -0.033853
vn -0.998441 -0.054450 -0.012274
vn -0.998441 -0.054450 -0.012274
vn -0.998441 -0.054450 -0.012274
vn -0.998441 -0.054450 -0.012274
vn -0.998714 0.034618 -0.037052
vn -0.998714 0.034618 -0.037052
vn -0.998714 0.034618 -0.037052
vn -0.998714 0.034618 -0.037052
vn -0.999320 0.033878 -0.014552
vn -0.999320 0.033878 -0.014552
vn -0.999320 0.033878 -0.014552
vn -0.999320 0.033878 -0.014552
vn -0.999126 0.032043 -0.026858
vn -0.999125 0.032043 -0.026858
vn -0.999125 0.032043 -0.026858
vn -0.999126 0.032043 -0.026858
vn -0.999718 0.000843 -0.023715
vn -0.999718 0.000843 -0.023715
vn -0.999718 0.000843 -0.023715
vn -0.999718 0.000843 -0.023715
vn -0.998607 0.031536 -0.042310
vn -0.998607 0.031536 -0.042310
vn -0.998607 0.031536 -0.042310
vn -0.998607 0.031536 -0.042310
vn -0.999493 0.016741 -0.027092
vn -0.999493 0.016741 -0.027092
vn -0.999493 0.016741 -0.027092
vn -0.999493 0.016741 -0.027092
vn -0.999200 0.012282 -0.038062
vn -0.999200 0.012282 -0.038062
vn -0.999200 0.012282 -0.038062
vn -0.999200 0.012282 -0.038062
vn 0.998817 0.024003 -0.042278
vn 0.998818 0.024003 -0.042278
vn 0.998818 0.024003 -0.042278
vn 0.998817 0.024003 -0.042278
vn 0.999344 0.009868 -0.034835
vn 0.999344 0.009868 -0.034835
vn 0.999344 0.009868 -0.034835
vn 0.999344 0.009868 -0.034835
vn 0.002366 0.966545 0.256485
vn 0.002366 0.966545 0.256485
vn 0.002366 0.966545 0.256485
vn 0.002366 0.966545 0.256485
vn 0.999764 0.000500 -0.021740
vn 0.999764 0.000500 -0.021740
vn 0.999764 0.000500 -0.021740
vn 0.999763 0.000500 -0.021740
vn 0.999631 -0.000382 -0.027173
vn 0.999631 -0.000382 -0.027173
vn 0.999631 -0.000382 -0.027173
vn 0.999631 -0.000382 -0.027173
vn -0.004200 -0.949528 0.313654
vn -0.004200 -0.949528 0.313654
vn -0.004200 -0.949528 0.313654
vn -0.004200 -0.949528 0.313654
vn 0.998116 -0.061099 -0.005603
vn 0.998116 -0.061099 -0.005603
vn 0.998116 -0.061099 -0.005603
vn 0.998116 -0.061099 -0.005603
vn 0.999147 0.027966 -0.030377
vn 0.999147 0.027966 -0.030377
vn 0.999147 0.027966 -0.030377
vn 0.999147 0.027966 -0.030377
vn 0.999598 0.027222 -0.007873
vn 0.999598 0.027222 -0.007873
vn 0.999599 0.027222 -0.007873
vn 0.999598 0.027222 -0.007873
vn 0.999474 0.025385 -0.020181
vn 0.999474 0.025385 -0.020181
vn 0.999474 0.025385 -0.020181
vn 0.999474 0.025385 -0.020181
vn -0.004206 -0.949529 0.313651
vn -0.004206 -0.949529 0.313651
vn -0.004206 -0.949529 0.313651
vn -0.004206 -0.949529 0.313651
vn 0.999838 -0.005817 -0.017034
vn 0.999838 -0.005817 -0.017034
vn 0.999838 -0.005817 -0.017034
vn 0.999838 -0.005817 -0.017034
vn 0.999055 0.024886 -0.035636
vn 0.999055 0.024886 -0.035636
vn 0.999055 0.024886 -0.035636
vn 0.999055 0.024886 -0.035636
vn 0.999741 0.010084 -0.020412
vn 0.999741 0.010084 -0.020412
vn 0.999741 0.010084 -0.020412
vn 0.999741 0.010084 -0.020412
vn 0.999492 0.005624 -0.031384
vn 0.999492 0.005624 -0.031384
vn 0.999492 0.005624 -0.031384
vn 0.999492 0.005624 -0.031384
vn 0.003305 -0.005590 -0.999979
vn 0.003305 -0.005590 -0.999979
vn 0.003305 -0.005590 -0.999979
vn 0.003305 -0.005590 -0.999979
vn 0.002982 -0.095470 -0.995428
vn 0.002982 -0.095470 -0.995428
vn 0.002982 -0.095470 -0.995428
vn 0.002982 -0.095470 -0.995428
vn -0.003991 -0.974796 0.223060
vn -0.003991 -0.974797 0.223061
vn -0.003991 -0.974796 0.223060
vn -0.003991 -0.974796 0.223060
vn 0.003588 0.081640 -0.996655
vn 0.003588 0.081640 -0.996655
vn 0.003588 0.081640 -0.996655
vn 0.003588 0.081640 -0.996655
vn 0.003733 0.133098 -0.991096
vn 0.003733 0.133098 -0.991096
vn 0.003733 0.133098 -0.991096
vn 0.003733 0.133098 -0.991096
vn 0.001777 0.921047 0.389448
vn 0.001777 0.921047 0.389448
vn 0.001777 0.921047 0.389448
vn 0.001777 0.921047 0.389448
s off
g polySurface2 TropicalFish03:TropicalFish03
usemtl TropicalFish03:___Default
f 4/1/1 5/2/2 6/3/3 7/4/4
f 8/5/5 6/3/6 5/2/7 9/6/8
f 12/7/9 13/8/10 14/9/11 15/10/12
f 14/9/13 8/5/14 9/6/15 15/10/16
f 17/11/17 18/12/18 2/13/19 1/14/20
f 19/15/21 17/11/22 1/14/23 3/16/24
f 10/17/25 16/18/26 20/19/27 11/20/28
f 11/20/29 20/19/30 19/15/31 3/16/32
f 5/2/33 4/1/34 18/12/35 17/11/36
f 9/6/37 5/2/38 17/11/39 19/15/40
f 16/18/41 12/7/42 15/10/43 20/19/44
f 20/19/45 15/10/46 9/6/47 19/15/48
f 24/21/49 25/22/50 26/23/51 27/24/52
f 28/25/53 29/26/54 27/24/55 26/23/56
f 30/27/57 13/8/58 12/7/59 31/28/60
f 31/28/61 34/29/62 35/30/63 30/27/64
f 35/30/65 34/29/66 29/26/67 28/25/68
f 2/13/69 18/12/70 37/31/71 22/32/72
f 38/33/73 21/34/74 22/32/75 37/31/76
f 39/35/77 23/36/78 21/34/79 38/33/80
f 33/37/81 32/38/82 40/39/83 36/40/84
f 32/38/85 23/36/86 39/35/87 40/39/88
f 18/12/89 4/1/90 24/21/91 37/31/92
f 27/24/93 38/33/94 37/31/95 24/21/96
f 29/26/97 39/35/98 38/33/99 27/24/100
f 36/40/101 40/39/102 34/29/103 31/28/104
f 40/39/105 39/35/106 29/26/107 34/29/108
f 13/8/109 30/27/110 35/30/111 14/9/112
f 7/4/113 6/3/114 26/23/115 25/22/116
f 7/4/117 25/22/118 24/21/119 4/1/120
f 14/9/121 35/30/122 28/25/123 8/5/124
f 8/5/125 28/25/126 26/23/127 6/3/128
f 16/18/129 36/40/130 31/28/131 12/7/132
