# This file uses centimeters as units for non-parametric coordinates.

mtllib PA.mtl
g default
v -9.884843 1.413737 0.200330
v -9.640142 -0.440365 0.197520
v -9.640142 3.267839 0.197520
v -9.203171 -1.469555 0.192503
v -8.929991 4.940450 0.189367
v -7.823906 6.267841 0.176666
v -0.130203 -0.440365 0.088330
v 0.114499 1.413737 0.085521
v -0.130200 3.267840 0.088330
v -1.946437 6.267842 0.109184
v -0.840351 4.940451 0.096483
v -0.565973 -1.466728 0.093333
v -6.430156 7.120079 0.160664
v -3.340188 7.120079 0.125186
vt 0.025145 0.121332
vt 0.066539 0.002320
vt 0.886999 0.001992
vt 0.928508 0.121332
vt 0.951753 0.336326
vt 0.928508 0.551319
vt 0.861050 0.745268
vt 0.755981 0.899186
vt 0.623586 0.998008
vt 0.330066 0.998008
vt 0.197671 0.899186
vt 0.092602 0.745268
vt 0.025144 0.551319
vt 0.001900 0.336326
vn -0.011481 -0.000000 -0.999934
vn -0.011481 -0.000000 -0.999934
vn -0.011481 -0.000000 -0.999934
vn -0.011481 -0.000000 -0.999934
vn -0.011481 -0.000000 -0.999934
vn -0.011481 -0.000000 -0.999934
vn -0.011481 -0.000000 -0.999934
vn -0.011481 -0.000000 -0.999934
vn -0.011481 -0.000000 -0.999934
vn -0.011481 -0.000000 -0.999934
vn -0.011481 -0.000000 -0.999934
vn -0.011481 -0.000000 -0.999934
vn -0.011481 -0.000000 -0.999934
vn -0.011481 -0.000000 -0.999934
s off
g PA:polySurface1
usemtl PA:lambert3SG
f 7/1/1 12/2/2 4/3/3 2/4/4 1/5/5 3/6/6 5/7/7 6/8/8 13/9/9 14/10/10 10/11/11 11/12/12 9/13/13 8/14/14
