# This file uses centimeters as units for non-parametric coordinates.

mtllib PiA.mtl
g default
v 26.700842 -1.790317 -12.273150
v 60.778149 -1.970091 -36.255524
v 26.702879 -1.457253 -12.272752
v 60.780186 -1.637027 -36.255126
v 21.815236 -1.419124 -19.158945
v 55.892543 -1.598897 -43.141319
v 21.813198 -1.752188 -19.159343
v 55.890505 -1.931961 -43.141717
vt 0.001891 0.998008
vt 0.001891 0.668528
vt 0.331371 0.668528
vt 0.331371 0.998008
vt 0.338706 0.668528
vt 0.668186 0.668528
vt 0.668186 0.998008
vt 0.338706 0.998008
vt -0.353961 -0.709599
vt 1.360853 -0.709599
vt 1.360853 1.001276
vt -0.353961 1.001276
vt -0.335005 -0.695535
vt 1.375252 -0.695535
vt 1.375252 1.014721
vt -0.335005 1.014721
vt 0.001891 0.001992
vt 0.331370 0.001992
vt 0.331370 0.331471
vt 0.001891 0.331471
vt 0.617663 0.335260
vt 0.947142 0.335260
vt 0.947142 0.664740
vt 0.617663 0.664740
vn 0.575505 -0.004498 0.817786
vn 0.575505 -0.004498 0.817786
vn 0.575505 -0.004498 0.817786
vn 0.575505 -0.004498 0.817786
vn 0.006117 0.999981 0.001195
vn 0.006117 0.999981 0.001195
vn 0.006117 0.999981 0.001195
vn 0.006117 0.999981 0.001195
vn -0.575505 0.004498 -0.817786
vn -0.575505 0.004498 -0.817786
vn -0.575505 0.004498 -0.817786
vn -0.575505 0.004498 -0.817786
vn -0.006117 -0.999981 -0.001195
vn -0.006117 -0.999981 -0.001195
vn -0.006117 -0.999981 -0.001195
vn -0.006117 -0.999981 -0.001195
vn 0.815451 -0.004296 -0.578810
vn 0.815451 -0.004296 -0.578810
vn 0.815451 -0.004296 -0.578810
vn 0.815451 -0.004296 -0.578810
vn -0.815451 0.004296 0.578810
vn -0.815451 0.004296 0.578810
vn -0.815451 0.004296 0.578810
vn -0.815451 0.004296 0.578810
s off
g pCube1
usemtl lambert2SG
f 1/17/1 2/18/2 4/19/3 3/20/4
f 3/9/5 4/10/6 6/11/7 5/12/8
f 5/21/9 6/22/10 8/23/11 7/24/12
f 7/13/13 8/14/14 2/15/15 1/16/16
f 2/1/17 8/2/18 6/3/19 4/4/20
f 7/5/21 1/6/22 3/7/23 5/8/24
