# This file uses centimeters as units for non-parametric coordinates.

mtllib Cristal.mtl
g default
v -0.696559 0.912062 -0.309608
v -0.696559 0.361485 -0.309608
v -0.697740 0.912062 -0.959607
v -0.697740 0.361485 -0.959607
v 0.703439 0.912062 -0.312151
v 0.703439 0.361485 -0.312151
v 0.702258 0.912062 -0.962150
v 0.702258 0.361485 -0.962150
v -0.680090 0.912062 -0.317290
v -0.680090 0.361485 -0.317290
v -0.681243 0.912062 -0.951984
v -0.681243 0.361485 -0.951984
v 0.686942 0.912062 -0.319773
v 0.686942 0.361485 -0.319773
v 0.685789 0.912062 -0.954467
v 0.685789 0.361485 -0.954467
vt 0.375000 0.750000
vt 0.625000 0.750000
vt 0.625000 1.000000
vt 0.375000 1.000000
vt 0.375000 0.000000
vt 0.625000 0.000000
vt 0.625000 0.250000
vt 0.375000 0.250000
vt 0.375000 0.500000
vt 0.625000 0.500000
vt 0.375000 0.750000
vt 0.375000 1.000000
vt 0.625000 1.000000
vt 0.625000 0.750000
vt 0.375000 0.000000
vt 0.375000 0.250000
vt 0.625000 0.250000
vt 0.625000 0.000000
vt 0.375000 0.500000
vt 0.625000 0.500000
vn -0.001800 0.000000 -0.999998
vn -0.001800 0.000000 -0.999998
vn -0.001800 0.000000 -0.999998
vn -0.001800 0.000000 -0.999998
vn 0.999998 0.000000 -0.001800
vn 0.999998 0.000000 -0.001800
vn 0.999998 0.000000 -0.001800
vn 0.999998 0.000000 -0.001800
vn -0.999998 0.000000 0.001800
vn -0.999998 0.000000 0.001800
vn -0.999998 0.000000 0.001800
vn -0.999998 0.000000 0.001800
vn 0.001800 0.000000 0.999998
vn 0.001800 0.000000 0.999998
vn 0.001800 0.000000 0.999998
vn 0.001800 0.000000 0.999998
vn 0.001800 0.000000 0.999998
vn 0.001800 0.000000 0.999998
vn 0.001800 0.000000 0.999998
vn 0.001800 0.000000 0.999998
vn -0.999998 0.000000 0.001800
vn -0.999998 0.000000 0.001800
vn -0.999998 0.000000 0.001800
vn -0.999998 0.000000 0.001800
vn 0.999998 0.000000 -0.001800
vn 0.999998 0.000000 -0.001800
vn 0.999998 0.000000 -0.001800
vn 0.999998 0.000000 -0.001800
vn -0.001800 0.000000 -0.999998
vn -0.001800 0.000000 -0.999998
vn -0.001800 0.000000 -0.999998
vn -0.001800 0.000000 -0.999998
vn 0.000000 -1.000000 0.000000
vn 0.000000 -1.000000 0.000000
vn 0.000000 -1.000000 0.000000
vn 0.000000 -1.000000 0.000000
vn 0.000000 -1.000000 0.000000
vn 0.000000 -1.000000 0.000000
vn 0.000000 -1.000000 0.000000
vn 0.000000 -1.000000 0.000000
vn 0.000000 1.000000 0.000000
vn 0.000000 1.000000 0.000000
vn 0.000000 1.000000 0.000000
vn 0.000000 1.000000 0.000000
vn 0.000000 1.000000 0.000000
vn 0.000000 1.000000 0.000000
vn 0.000000 1.000000 0.000000
vn 0.000000 1.000000 0.000000
vn 0.000000 -1.000000 0.000000
vn 0.000000 -1.000000 0.000000
vn 0.000000 -1.000000 0.000000
vn 0.000000 -1.000000 0.000000
vn 0.000000 1.000000 0.000000
vn 0.000000 1.000000 0.000000
vn 0.000000 1.000000 0.000000
vn 0.000000 1.000000 0.000000
vn 0.000000 1.000000 0.000000
vn 0.000000 1.000000 0.000000
vn 0.000000 1.000000 0.000000
vn 0.000000 1.000000 0.000000
vn 0.000000 -1.000000 0.000000
vn 0.000000 -1.000000 0.000000
vn 0.000000 -1.000000 0.000000
vn 0.000000 -1.000000 0.000000
s off
g polySurface3 uploads_files_3356688_Glass_Cage:Mesh
usemtl phong1SG
f 4/1/1 3/2/2 7/3/3 8/4/4
f 8/5/5 7/6/6 5/7/7 6/8/8
f 2/9/9 1/10/10 3/2/11 4/1/12
f 6/8/13 5/7/14 1/10/15 2/9/16
f 12/11/17 16/12/18 15/13/19 11/14/20
f 16/15/21 14/16/22 13/17/23 15/18/24
f 10/19/25 12/11/26 11/14/27 9/20/28
f 14/16/29 10/19/30 9/20/31 13/17/32
f 8/5/33 6/8/34 14/16/35 16/15/36
f 6/8/37 2/9/38 10/19/39 14/16/40
f 7/3/41 3/2/42 11/14/43 15/13/44
f 3/2/45 1/10/46 9/20/47 11/14/48
f 4/1/49 8/4/50 16/12/51 12/11/52
f 5/7/53 7/6/54 15/18/55 13/17/56
f 1/10/57 5/7/58 13/17/59 9/20/60
f 2/9/61 4/1/62 12/11/63 10/19/64
