# This file uses centimeters as units for non-parametric coordinates.

mtllib PecPar.mtl
g default
v 1.545633 0.421718 -2.127382
v 2.127382 0.421718 -1.545633
v 0.812589 0.421718 -2.500888
v 0.000000 0.421718 -2.629590
v 0.000000 0.827950 -2.532062
v 0.782451 0.827950 -2.408134
v 1.488308 0.827950 -2.048480
v 2.048480 0.827950 -1.488308
v 1.857396 0.978703 -2.556484
v 2.498027 0.978703 -1.937855
v 0.976492 0.978702 -3.005329
v 0.099454 0.978702 -3.159990
v 1.888297 0.514066 -2.599016
v 2.541584 0.536813 -1.959836
v 2.459522 0.965790 -1.899350
v 0.992738 0.514065 -3.055329
v 0.091635 0.536811 -3.208149
v 0.090935 0.965790 -3.106206
v -2.500888 0.421718 -0.812589
v -0.812589 0.421718 -2.500888
v -2.127382 0.421718 -1.545633
v -1.545633 0.421718 -2.127382
v -2.408134 0.827950 -0.782451
v -2.048480 0.827950 -1.488308
v -1.488308 0.827950 -2.048480
v -0.782451 0.827950 -2.408134
v -2.960288 0.974895 -1.063789
v -2.543653 0.974895 -1.848073
v -1.848073 0.974895 -2.543653
v -1.063789 0.974895 -2.960288
v -2.957751 0.974219 -1.062496
v -3.054730 0.543850 -1.094787
v -1.094787 0.543850 -3.054730
v -1.062496 0.974219 -2.957750
v -2.627858 0.519712 -1.909252
v -1.909252 0.519712 -2.627858
v -1.545633 0.421718 2.127382
v -2.127382 0.421718 1.545633
v -0.812589 0.421718 2.500888
v -2.500888 0.421718 0.812589
v -2.629590 0.421718 0.000000
v -1.488308 0.827950 2.048480
v -2.048480 0.827950 1.488308
v -0.782451 0.827950 2.408134
v -2.408134 0.827950 0.782451
v -2.532062 0.827950 0.000000
v -1.838550 0.971005 2.530546
v -2.530546 0.971006 1.838550
v -1.056342 0.971005 2.945673
v -2.974837 0.971005 0.966584
v -3.127929 0.971005 0.094376
v -1.889441 0.514373 2.600592
v -2.600592 0.514373 1.889441
v -1.079412 0.537196 3.024556
v -1.047239 0.966250 2.927806
v -3.057180 0.514373 0.993340
v -3.210080 0.537196 0.091941
v -3.108123 0.966250 0.091239
v 1.545633 0.421718 2.127382
v 0.812586 0.421718 2.500888
v 1.488308 0.827950 2.048480
v 0.782451 0.827950 2.408134
v 1.756970 0.968273 2.575756
v 1.051113 0.968273 2.935410
v 1.810837 0.536495 2.647872
v 1.077789 0.536494 3.021378
v 1.751488 0.965411 2.564998
v 1.045631 0.965409 2.924653
v 2.500888 0.421718 -0.812589
v 2.629586 0.421718 0.000000
v 2.500888 0.421718 0.812586
v 2.127382 0.421718 1.545633
v 2.408134 0.827950 -0.782451
v 2.532062 0.827950 0.000000
v 2.408134 0.827950 0.782451
v 2.048480 0.827950 1.488308
v 3.002493 0.970641 -0.876588
v 3.126421 0.970641 0.000000
v 2.973403 0.970641 0.966118
v 2.584659 0.970642 1.761506
v 2.999664 0.969964 -0.876138
v 3.096967 0.540296 -0.906996
v 3.230213 0.516861 0.000000
v 3.072117 0.516861 0.998188
v 2.665111 0.540297 1.819621
v 2.582106 0.969964 1.760205
v 3.096967 0.540296 -0.906996
v 2.665111 0.540297 1.819621
vt 0.046464 -0.017051
vt 0.935920 -0.017051
vt 0.935920 0.971377
vt 0.046464 0.971377
vt 0.054622 -0.017051
vt 0.944078 -0.017051
vt 0.944078 0.971377
vt 0.054622 0.971377
vt 0.062780 -0.017051
vt 0.952237 -0.017051
vt 0.952237 0.971377
vt 0.062780 0.971377
vt 0.000000 0.000000
vt 1.000000 0.000000
vt 1.000000 1.000000
vt 0.000000 1.000000
vt 0.000000 0.000000
vt 1.000000 0.000000
vt 1.000000 1.000000
vt 0.000000 1.000000
vt 0.000000 0.000000
vt 1.000000 0.000000
vt 1.000000 1.000000
vt 0.000000 1.000000
vt 0.000000 0.000000
vt 1.000000 0.000000
vt 1.000000 1.000000
vt 0.000000 1.000000
vt 0.000000 0.000000
vt 1.000000 0.000000
vt 1.000000 1.000000
vt 0.000000 1.000000
vt 0.000000 0.000000
vt 1.000000 0.000000
vt 1.000000 1.000000
vt 0.000000 1.000000
vt 0.000000 0.000000
vt 1.000000 0.000000
vt 1.000000 1.000000
vt 0.000000 1.000000
vt 0.000000 0.000000
vt 1.000000 0.000000
vt 1.000000 1.000000
vt 0.000000 1.000000
vt 0.078813 -0.017051
vt 0.968269 -0.017051
vt 0.968269 0.971377
vt 0.078813 0.971377
vt 0.062497 -0.017051
vt 0.951953 -0.017051
vt 0.951953 0.971377
vt 0.062497 0.971377
vt 0.070655 -0.017051
vt 0.960111 -0.017051
vt 0.960111 0.971377
vt 0.070655 0.971377
vt 0.000000 0.000000
vt 1.000000 0.000000
vt 1.000000 1.000000
vt 0.000000 1.000000
vt 0.000000 0.000000
vt 1.000000 0.000000
vt 1.000000 1.000000
vt 0.000000 1.000000
vt 0.000000 0.000000
vt 1.000000 0.000000
vt 1.000000 1.000000
vt 0.000000 1.000000
vt 0.000000 0.000000
vt 1.000000 0.000000
vt 1.000000 1.000000
vt 0.000000 1.000000
vt 0.000000 0.000000
vt 1.000000 0.000000
vt 1.000000 1.000000
vt 0.000000 1.000000
vt 0.000000 0.000000
vt 1.000000 0.000000
vt 1.000000 1.000000
vt 0.000000 1.000000
vt 0.000000 0.000000
vt 1.000000 0.000000
vt 1.000000 1.000000
vt 0.000000 1.000000
vt 0.000000 0.000000
vt 1.000000 0.000000
vt 1.000000 1.000000
vt 0.000000 1.000000
vt 0.016561 -0.017051
vt 0.906018 -0.017051
vt 0.906018 0.971377
vt 0.016561 0.971377
vt 0.024720 -0.017051
vt 0.914176 -0.017051
vt 0.914176 0.971377
vt 0.024720 0.971377
vt 0.008403 -0.017051
vt 0.897860 -0.017051
vt 0.897860 0.971377
vt 0.008403 0.971377
vt 0.130382 -0.017051
vt 1.019838 -0.017051
vt 1.019838 0.971377
vt 0.130382 0.971377
vt 0.000000 0.000000
vt 1.000000 0.000000
vt 1.000000 1.000000
vt 0.000000 1.000000
vt 0.000000 0.000000
vt 1.000000 0.000000
vt 1.000000 1.000000
vt 0.000000 1.000000
vt 0.000000 0.000000
vt 1.000000 0.000000
vt 1.000000 1.000000
vt 0.000000 1.000000
vt 0.000000 0.000000
vt 1.000000 0.000000
vt 1.000000 1.000000
vt 0.000000 1.000000
vt 0.000000 0.000000
vt 1.000000 0.000000
vt 1.000000 1.000000
vt 0.000000 1.000000
vt 0.000000 0.000000
vt 1.000000 0.000000
vt 1.000000 1.000000
vt 0.000000 1.000000
vt 0.000000 0.000000
vt 1.000000 0.000000
vt 1.000000 1.000000
vt 0.000000 1.000000
vt 0.000000 0.000000
vt 1.000000 0.000000
vt 1.000000 1.000000
vt 0.000000 1.000000
vt 0.000000 0.000000
vt 1.000000 0.000000
vt 1.000000 1.000000
vt 0.000000 1.000000
vt 0.000000 0.000000
vt 1.000000 0.000000
vt 1.000000 1.000000
vt 0.000000 1.000000
vt 0.032594 -0.017051
vt 0.922051 -0.017051
vt 0.922051 0.971377
vt 0.032594 0.971377
vt 0.000000 0.000000
vt 1.000000 0.000000
vt 1.000000 1.000000
vt 0.000000 1.000000
vt 0.000000 0.000000
vt 1.000000 0.000000
vt 1.000000 1.000000
vt 0.000000 1.000000
vt 0.000000 0.000000
vt 1.000000 0.000000
vt 1.000000 1.000000
vt 0.000000 1.000000
vt 0.000000 0.000000
vt 1.000000 0.000000
vt 1.000000 1.000000
vt 0.000000 1.000000
vt 0.100479 -0.017051
vt 0.989935 -0.017051
vt 0.989935 0.971377
vt 0.100479 0.971377
vt 0.057068 -0.017051
vt 0.946525 -0.017051
vt 0.946525 0.971377
vt 0.057068 0.971377
vt 0.048911 -0.017051
vt 0.938367 -0.017051
vt 0.938367 0.971377
vt 0.048911 0.971377
vt 0.000000 0.000000
vt 1.000000 0.000000
vt 1.000000 1.000000
vt 0.000000 1.000000
vt 0.000000 0.000000
vt 1.000000 0.000000
vt 1.000000 1.000000
vt 0.000000 1.000000
vt 0.000000 0.000000
vt 1.000000 0.000000
vt 1.000000 1.000000
vt 0.000000 1.000000
vt 0.000000 0.000000
vt 1.000000 0.000000
vt 1.000000 1.000000
vt 0.000000 1.000000
vt 0.000000 0.000000
vt 1.000000 0.000000
vt 1.000000 1.000000
vt 0.000000 1.000000
vt 0.000000 0.000000
vt 1.000000 0.000000
vt 1.000000 1.000000
vt 0.000000 1.000000
vt 0.000000 0.000000
vt 1.000000 0.000000
vt 1.000000 1.000000
vt 0.000000 1.000000
vt 0.000000 0.000000
vt 1.000000 0.000000
vt 1.000000 1.000000
vt 0.000000 1.000000
vn 0.688028 0.230726 -0.688028
vn 0.688028 0.230726 -0.688028
vn 0.688028 0.230726 -0.688028
vn 0.688028 0.230726 -0.688028
vn 0.441743 0.230726 -0.866965
vn 0.441743 0.230726 -0.866965
vn 0.441743 0.230726 -0.866965
vn 0.441743 0.230726 -0.866965
vn 0.152213 0.230726 -0.961039
vn 0.152213 0.230726 -0.961039
vn 0.152213 0.230726 -0.961039
vn 0.152213 0.230726 -0.961039
vn 0.163421 -0.972410 -0.166471
vn 0.134790 -0.972669 -0.189068
vn 0.134957 -0.972671 -0.188937
vn 0.163421 -0.972410 -0.166471
vn 0.073732 -0.972669 -0.220178
vn 0.073528 -0.972671 -0.220237
vn 0.038622 -0.972410 -0.230060
vn 0.038622 -0.972410 -0.230060
vn -0.133343 0.984193 0.116547
vn -0.133343 0.984193 0.116547
vn -0.133343 0.984193 0.116547
vn -0.133343 0.984193 0.116547
vn -0.701337 -0.034735 -0.711983
vn -0.701337 -0.034735 -0.711983
vn -0.701337 -0.034735 -0.711983
vn -0.701337 -0.034735 -0.711983
vn 0.071895 -0.987382 -0.141099
vn 0.044471 -0.986360 -0.158483
vn 0.044326 -0.986351 -0.158575
vn 0.071895 -0.987382 -0.141099
vn 0.015912 -0.984194 -0.176379
vn 0.015912 -0.984194 -0.176379
vn 0.988242 -0.034734 0.148900
vn 0.988242 -0.034734 0.148900
vn 0.988242 -0.034734 0.148900
vn 0.988242 -0.034734 0.148900
vn -0.866965 0.230726 -0.441743
vn -0.866965 0.230726 -0.441743
vn -0.866965 0.230726 -0.441743
vn -0.866965 0.230726 -0.441743
vn -0.441743 0.230726 -0.866965
vn -0.441743 0.230726 -0.866965
vn -0.441743 0.230726 -0.866965
vn -0.441743 0.230726 -0.866965
vn -0.688028 0.230726 -0.688028
vn -0.688028 0.230726 -0.688028
vn -0.688028 0.230726 -0.688028
vn -0.688028 0.230726 -0.688028
vn -0.186644 -0.972670 -0.138122
vn -0.206892 -0.972409 -0.107780
vn -0.206892 -0.972409 -0.107780
vn -0.186760 -0.972672 -0.137950
vn -0.107780 -0.972409 -0.206892
vn -0.138122 -0.972670 -0.186644
vn -0.137950 -0.972672 -0.186760
vn -0.107780 -0.972409 -0.206892
vn 0.447010 -0.034676 -0.893856
vn 0.447010 -0.034676 -0.893856
vn 0.447010 -0.034676 -0.893856
vn 0.447010 -0.034676 -0.893856
vn -0.893856 -0.034677 0.447011
vn -0.893856 -0.034677 0.447011
vn -0.893856 -0.034677 0.447011
vn -0.893856 -0.034677 0.447011
vn -0.137124 -0.986364 -0.091012
vn -0.163186 -0.984176 -0.069050
vn -0.163186 -0.984176 -0.069050
vn -0.137264 -0.986355 -0.090894
vn -0.069050 -0.984176 -0.163186
vn -0.091011 -0.986364 -0.137124
vn -0.090894 -0.986355 -0.137264
vn -0.069050 -0.984176 -0.163186
vn -0.688028 0.230726 0.688028
vn -0.688028 0.230726 0.688028
vn -0.688028 0.230726 0.688028
vn -0.688028 0.230726 0.688028
vn -0.441743 0.230726 0.866965
vn -0.441743 0.230726 0.866965
vn -0.441743 0.230726 0.866965
vn -0.441743 0.230726 0.866965
vn -0.866965 0.230726 0.441743
vn -0.866965 0.230726 0.441743
vn -0.866965 0.230726 0.441743
vn -0.866965 0.230726 0.441743
vn -0.961040 0.230726 0.152213
vn -0.961039 0.230725 0.152213
vn -0.961039 0.230726 0.152213
vn -0.961039 0.230726 0.152213
vn -0.188862 -0.972370 0.137217
vn -0.138080 -0.972670 0.186671
vn -0.137912 -0.972673 0.186784
vn -0.188862 -0.972370 0.137217
vn -0.107735 -0.972408 0.206919
vn -0.107735 -0.972408 0.206919
vn -0.220203 -0.972671 0.073638
vn -0.220259 -0.972673 0.073443
vn -0.230084 -0.972408 0.038520
vn -0.230084 -0.972408 0.038520
vn 0.091254 0.986360 -0.136992
vn 0.111976 0.987382 -0.111976
vn 0.111976 0.987382 -0.111976
vn 0.091144 0.986352 -0.137124
vn 0.069605 0.984193 -0.162849
vn 0.069605 0.984193 -0.162849
vn -0.893860 -0.034730 -0.446999
vn -0.893860 -0.034730 -0.446999
vn -0.893860 -0.034730 -0.446999
vn -0.893860 -0.034730 -0.446999
vn -0.158486 -0.986360 0.044455
vn -0.141098 -0.987382 0.071894
vn -0.141098 -0.987382 0.071894
vn -0.158577 -0.986352 0.044309
vn -0.176388 -0.984193 0.015875
vn -0.176388 -0.984193 0.015875
vn 0.148901 -0.034731 0.988242
vn 0.148901 -0.034731 0.988242
vn 0.148901 -0.034731 0.988242
vn 0.148901 -0.034731 0.988242
vn 0.441743 0.230724 0.866966
vn 0.441743 0.230724 0.866966
vn 0.441743 0.230724 0.866966
vn 0.441743 0.230724 0.866966
vn 0.104747 -0.973019 0.205577
vn 0.104747 -0.973019 0.205577
vn 0.104747 -0.973019 0.205577
vn 0.104747 -0.973019 0.205577
vn -0.087528 0.981239 -0.171782
vn -0.087528 0.981239 -0.171782
vn -0.087528 0.981239 -0.171782
vn -0.087528 0.981239 -0.171782
vn -0.887025 -0.034736 0.460412
vn -0.887025 -0.034736 0.460412
vn -0.887025 -0.034736 0.460412
vn -0.887025 -0.034736 0.460412
vn 0.893861 -0.034743 -0.446996
vn 0.893861 -0.034743 -0.446996
vn 0.893861 -0.034743 -0.446996
vn 0.893861 -0.034743 -0.446996
vn 0.961040 0.230723 -0.152212
vn 0.961040 0.230723 -0.152212
vn 0.961040 0.230723 -0.152212
vn 0.961040 0.230723 -0.152212
vn 0.961041 0.230722 0.152212
vn 0.961041 0.230722 0.152212
vn 0.961041 0.230722 0.152212
vn 0.961041 0.230722 0.152212
vn 0.866966 0.230724 0.441742
vn 0.866966 0.230724 0.441742
vn 0.866966 0.230724 0.441742
vn 0.866966 0.230725 0.441742
vn 0.232178 -0.972671 0.001982
vn 0.230722 -0.972409 -0.034470
vn 0.230722 -0.972409 -0.034470
vn 0.232170 -0.972674 0.001780
vn 0.221427 -0.972671 0.069863
vn 0.221357 -0.972673 0.070053
vn 0.208779 -0.972409 0.104081
vn 0.208779 -0.972409 0.104081
vn 0.163762 -0.034707 0.985889
vn 0.163762 -0.034707 0.985889
vn 0.163762 -0.034707 0.985889
vn 0.163762 -0.034707 0.985889
vn -0.172635 0.984185 0.039710
vn -0.164449 0.986362 0.006824
vn -0.164492 0.986354 0.006995
vn -0.172635 0.984185 0.039710
vn -0.154292 0.986362 -0.057307
vn -0.154280 0.986354 -0.057484
vn -0.151914 0.984185 -0.091115
vn -0.151914 0.984185 -0.091115
vn 0.460407 -0.034706 -0.887030
vn 0.460407 -0.034706 -0.887030
vn 0.460406 -0.034706 -0.887030
vn 0.460407 -0.034706 -0.887030
s off
g polySurface2
usemtl phong1SG
f 2/1/1 1/2/2 7/3/3 8/4/4
f 1/5/5 3/6/6 6/7/7 7/8/8
f 3/9/9 4/10/10 5/11/11 6/12/12
s 1
f 8/13/13 7/14/14 9/15/15 10/16/16
f 7/17/14 6/18/17 11/19/18 9/20/15
f 6/21/17 5/22/19 12/23/20 11/24/18
s off
f 1/25/21 2/26/22 14/27/23 13/28/24
f 2/29/25 8/30/26 15/31/27 14/32/28
s 2
f 1/33/29 3/34/30 16/35/31 13/36/32
f 3/37/30 4/38/33 17/39/34 16/40/31
s off
f 5/41/35 4/42/36 17/43/37 18/44/38
f 21/45/39 19/46/40 23/47/41 24/48/42
f 20/49/43 22/50/44 25/51/45 26/52/46
f 22/53/47 21/54/48 24/55/49 25/56/50
s 3
f 24/57/51 23/58/52 27/59/53 28/60/54
f 26/61/55 25/62/56 29/63/57 30/64/58
f 25/65/56 24/66/51 28/67/54 29/68/57
s off
f 23/69/59 19/70/60 32/71/61 31/72/62
f 20/73/63 26/74/64 34/75/65 33/76/66
s 4
f 21/77/67 19/78/68 32/79/69 35/80/70
f 20/81/71 22/82/72 36/83/73 33/84/74
f 22/85/72 21/86/67 35/87/70 36/88/73
s off
f 38/89/75 37/90/76 42/91/77 43/92/78
f 37/93/79 39/94/80 44/95/81 42/96/82
f 40/97/83 38/98/84 43/99/85 45/100/86
f 41/101/87 40/102/88 45/103/89 46/104/90
s 5
f 43/105/91 42/106/92 47/107/93 48/108/94
f 42/109/92 44/110/95 49/111/96 47/112/93
f 45/113/97 43/114/91 48/115/94 50/116/98
f 46/117/99 45/118/97 50/119/98 51/120/100
s 6
f 37/121/101 38/122/102 53/123/103 52/124/104
f 39/125/105 37/126/101 52/127/104 54/128/106
s off
f 44/129/107 39/130/108 54/131/109 55/132/110
s 7
f 40/133/111 38/134/112 53/135/113 56/136/114
f 41/137/115 40/138/111 56/139/114 57/140/116
s off
f 41/141/117 46/142/118 58/143/119 57/144/120
f 60/145/121 59/146/122 61/147/123 62/148/124
f 62/149/125 61/150/126 63/151/127 64/152/128
f 59/153/129 60/154/130 66/155/131 65/156/132
f 61/157/133 59/158/134 65/159/135 67/160/136
f 60/161/137 62/162/138 68/163/139 66/164/140
f 70/165/141 69/166/142 73/167/143 74/168/144
f 71/169/145 70/170/146 74/171/147 75/172/148
f 72/173/149 71/174/150 75/175/151 76/176/152
s 8
f 74/177/153 73/178/154 77/179/155 78/180/156
f 75/181/157 74/182/153 78/183/156 79/184/158
f 76/185/159 75/186/157 79/187/158 80/188/160
s off
f 73/189/161 69/190/162 87/191/163 81/192/164
s 9
f 69/193/165 70/194/166 83/195/167 82/196/168
f 70/197/166 71/198/169 84/199/170 83/200/167
f 71/201/169 72/202/171 88/203/172 84/204/170
s off
f 72/205/173 76/206/174 86/207/175 85/208/176
