# This file uses centimeters as units for non-parametric coordinates.

mtllib PecParB.mtl
g default
v 2.153902 0.000689 -1.564901
v 1.564901 0.000689 -2.153899
v 1.545633 0.417173 -2.127382
v 2.127382 0.417173 -1.545633
v 0.000000 0.000689 -2.662365
v 0.822716 0.000689 -2.532062
v 0.812589 0.417173 -2.500888
v 0.000000 0.417173 -2.629590
v 1.888297 0.509522 -2.599016
v 2.541584 0.532268 -1.959836
v 0.992738 0.509521 -3.055329
v 0.091635 0.532267 -3.208149
v 2.543951 0.532152 -1.962204
v 2.570472 0.046487 -1.981472
v 0.092158 0.046480 -3.244232
v 0.092158 0.536811 -3.211456
v -2.532062 0.000689 -0.822716
v -2.153899 0.000689 -1.564899
v -1.564899 0.000689 -2.153899
v -0.822716 0.000689 -2.532062
v -2.500888 0.417173 -0.812589
v -0.812589 0.417173 -2.500888
v -2.127382 0.417173 -1.545633
v -1.545633 0.417173 -2.127382
v -3.054730 0.539305 -1.094787
v -1.094787 0.539305 -3.054730
v -2.627858 0.515168 -1.909252
v -1.909252 0.515168 -2.627858
v -3.053199 0.546346 -1.094006
v -3.084372 0.048872 -1.104133
v -1.104133 0.048872 -3.084372
v -1.094006 0.541054 -3.053199
v -2.153899 0.000689 1.564899
v -1.564899 0.000689 2.153899
v -1.545633 0.417173 2.127382
v -2.127382 0.417173 1.545633
v -0.822716 0.000689 2.532062
v -0.812589 0.417173 2.500888
v -2.532062 0.000689 0.822716
v -2.662365 0.000689 0.000000
v -2.500888 0.417173 0.812589
v -2.629590 0.417173 0.000000
v -1.889441 0.509829 2.600592
v -2.600592 0.509829 1.889441
v -1.079412 0.532651 3.024556
v -3.057180 0.509829 0.993340
v -3.210080 0.532651 0.091941
v -1.099411 0.048063 3.075104
v -1.089284 0.546211 3.043931
v -3.231558 0.537540 0.095342
v -3.264334 0.048062 0.095342
v 0.822716 0.000689 2.532062
v 1.564899 0.000689 2.153899
v 1.545633 0.417173 2.127382
v 0.812586 0.417173 2.500888
v 1.810837 0.531951 2.647872
v 1.077789 0.531949 3.021378
v 1.852255 0.049889 2.717865
v 1.832989 0.541036 2.691348
v 1.099941 0.538459 3.042558
v 1.110072 0.049891 3.096028
v 2.532062 0.000689 -0.822716
v 2.500888 0.417173 -0.812589
v 2.662365 0.000689 0.000000
v 2.629586 0.417173 0.000000
v 2.532062 0.000689 0.822716
v 2.500888 0.417173 0.812586
v 2.153899 0.000689 1.564899
v 2.127382 0.417173 1.545633
v 3.096967 0.535752 -0.906996
v 3.230213 0.512316 0.000000
v 3.072117 0.512317 0.998188
v 3.096781 0.541246 -0.906967
v 3.127954 0.047586 -0.917095
v 2.664944 0.531858 1.819535
v 2.691462 0.047586 1.838801
v 2.665111 0.535752 1.819621
vt 0.046464 0.013057
vt 0.935920 0.013057
vt 0.935920 1.001484
vt 0.046464 1.001484
vt 0.054622 0.013057
vt 0.944078 0.013057
vt 0.944078 1.001484
vt 0.054622 1.001484
vt 0.062780 0.013057
vt 0.952237 0.013057
vt 0.952237 1.001484
vt 0.062780 1.001484
vt 0.000000 0.000000
vt 1.000000 0.000000
vt 1.000000 1.000000
vt 0.000000 1.000000
vt 0.000000 0.000000
vt 1.000000 0.000000
vt 1.000000 1.000000
vt 0.000000 1.000000
vt 0.000000 0.000000
vt 1.000000 0.000000
vt 1.000000 1.000000
vt 0.000000 1.000000
vt 0.000000 0.000000
vt 1.000000 0.000000
vt 1.000000 1.000000
vt 0.000000 1.000000
vt 0.000000 0.000000
vt 1.000000 0.000000
vt 1.000000 1.000000
vt 0.000000 1.000000
vt 0.078813 0.013057
vt 0.968269 0.013057
vt 0.968269 1.001484
vt 0.078813 1.001484
vt 0.062497 0.013057
vt 0.951953 0.013057
vt 0.951953 1.001484
vt 0.062497 1.001484
vt 0.070655 0.013057
vt 0.960111 0.013057
vt 0.960111 1.001484
vt 0.070655 1.001484
vt 0.000000 0.000000
vt 1.000000 0.000000
vt 1.000000 1.000000
vt 0.000000 1.000000
vt 0.000000 0.000000
vt 1.000000 0.000000
vt 1.000000 1.000000
vt 0.000000 1.000000
vt 0.000000 0.000000
vt 1.000000 0.000000
vt 1.000000 1.000000
vt 0.000000 1.000000
vt 0.000000 0.000000
vt 1.000000 0.000000
vt 1.000000 1.000000
vt 0.000000 1.000000
vt 0.000000 0.000000
vt 1.000000 0.000000
vt 1.000000 1.000000
vt 0.000000 1.000000
vt 0.016561 0.013057
vt 0.906018 0.013057
vt 0.906018 1.001484
vt 0.016561 1.001484
vt 0.024720 0.013057
vt 0.914176 0.013057
vt 0.914176 1.001484
vt 0.024720 1.001484
vt 0.008403 0.013057
vt 0.897860 0.013057
vt 0.897860 1.001484
vt 0.008403 1.001484
vt 0.130382 0.013057
vt 1.019838 0.013057
vt 1.019838 1.001484
vt 0.130382 1.001484
vt 0.000000 0.000000
vt 1.000000 0.000000
vt 1.000000 1.000000
vt 0.000000 1.000000
vt 0.000000 0.000000
vt 1.000000 0.000000
vt 1.000000 1.000000
vt 0.000000 1.000000
vt 0.000000 0.000000
vt 1.000000 0.000000
vt 1.000000 1.000000
vt 0.000000 1.000000
vt 0.000000 0.000000
vt 1.000000 0.000000
vt 1.000000 1.000000
vt 0.000000 1.000000
vt 0.000000 0.000000
vt 1.000000 0.000000
vt 1.000000 1.000000
vt 0.000000 1.000000
vt 0.000000 0.000000
vt 1.000000 0.000000
vt 1.000000 1.000000
vt 0.000000 1.000000
vt 0.032594 0.013057
vt 0.922051 0.013057
vt 0.922051 1.001484
vt 0.032594 1.001484
vt 0.000000 0.000000
vt 1.000000 0.000000
vt 1.000000 1.000000
vt 0.000000 1.000000
vt 0.000000 0.000000
vt 1.000000 0.000000
vt 1.000000 1.000000
vt 0.000000 1.000000
vt 0.000000 0.000000
vt 1.000000 0.000000
vt 1.000000 1.000000
vt 0.000000 1.000000
vt 0.100479 0.013057
vt 0.989935 0.013057
vt 0.989935 1.001484
vt 0.100479 1.001484
vt 0.057068 0.013057
vt 0.946525 0.013057
vt 0.946525 1.001484
vt 0.057068 1.001484
vt 0.048911 0.013057
vt 0.938367 0.013057
vt 0.938367 1.001484
vt 0.048911 1.001484
vt 0.000000 0.000000
vt 1.000000 0.000000
vt 1.000000 1.000000
vt 0.000000 1.000000
vt 0.000000 0.000000
vt 1.000000 0.000000
vt 1.000000 1.000000
vt 0.000000 1.000000
vt 0.000000 0.000000
vt 1.000000 0.000000
vt 1.000000 1.000000
vt 0.000000 1.000000
vt 0.000000 0.000000
vt 1.000000 0.000000
vt 1.000000 1.000000
vt 0.000000 1.000000
vt 0.000000 0.000000
vt 1.000000 0.000000
vt 1.000000 1.000000
vt 0.000000 1.000000
vn 0.806523 0.078459 -0.585973
vn 0.585973 0.078459 -0.806523
vn 0.580750 0.154249 -0.799335
vn 0.799335 0.154249 -0.580751
vn 0.585973 0.078459 -0.806523
vn 0.308064 0.078459 -0.948125
vn 0.305319 0.154249 -0.939674
vn 0.580750 0.154249 -0.799335
vn 0.308064 0.078459 -0.948125
vn 0.000000 0.078459 -0.996917
vn 0.000000 0.154249 -0.988032
vn 0.305319 0.154249 -0.939674
vn -0.133343 0.984193 0.116548
vn -0.133343 0.984193 0.116548
vn -0.133343 0.984193 0.116548
vn -0.133343 0.984193 0.116548
vn 0.071895 -0.987382 -0.141099
vn 0.044471 -0.986360 -0.158483
vn 0.044326 -0.986352 -0.158575
vn 0.071895 -0.987382 -0.141099
vn 0.015912 -0.984194 -0.176379
vn 0.015912 -0.984194 -0.176379
vn -0.705976 -0.011258 -0.708147
vn -0.705976 -0.011258 -0.708147
vn -0.705976 -0.011258 -0.708147
vn -0.705976 -0.011258 -0.708147
vn 0.987871 -0.011195 0.154871
vn 0.987871 -0.011195 0.154871
vn 0.987871 -0.011195 0.154871
vn 0.987871 -0.011195 0.154871
vn -0.806523 0.078459 -0.585973
vn -0.948125 0.078459 -0.308064
vn -0.939674 0.154248 -0.305319
vn -0.799335 0.154249 -0.580751
vn -0.308065 0.078459 -0.948125
vn -0.585974 0.078459 -0.806523
vn -0.580751 0.154249 -0.799335
vn -0.305319 0.154249 -0.939674
vn -0.585974 0.078459 -0.806523
vn -0.806523 0.078459 -0.585973
vn -0.799335 0.154249 -0.580751
vn -0.580751 0.154249 -0.799335
vn -0.137124 -0.986364 -0.091012
vn -0.163186 -0.984176 -0.069050
vn -0.163186 -0.984176 -0.069050
vn -0.137264 -0.986355 -0.090894
vn -0.069050 -0.984176 -0.163186
vn -0.091011 -0.986364 -0.137124
vn -0.090894 -0.986355 -0.137264
vn -0.069050 -0.984176 -0.163186
vn 0.452547 -0.011111 -0.891671
vn 0.452547 -0.011111 -0.891671
vn 0.452547 -0.011111 -0.891671
vn 0.452547 -0.011111 -0.891671
vn -0.891653 -0.011178 0.452581
vn -0.891653 -0.011178 0.452581
vn -0.891653 -0.011178 0.452581
vn -0.891653 -0.011178 0.452581
vn -0.806523 0.078459 0.585973
vn -0.585973 0.078459 0.806523
vn -0.580751 0.154249 0.799335
vn -0.799335 0.154248 0.580751
vn -0.585973 0.078459 0.806523
vn -0.362209 0.078329 0.928800
vn -0.356136 0.155160 0.921462
vn -0.580751 0.154249 0.799335
vn -0.948125 0.078458 0.308064
vn -0.806523 0.078459 0.585973
vn -0.799335 0.154248 0.580751
vn -0.939674 0.154248 0.305319
vn -0.996917 0.078458 0.000000
vn -0.948125 0.078458 0.308064
vn -0.939674 0.154248 0.305319
vn -0.988032 0.154248 0.000000
vn 0.091254 0.986360 -0.136992
vn 0.111976 0.987382 -0.111976
vn 0.111976 0.987382 -0.111976
vn 0.091144 0.986352 -0.137124
vn 0.069605 0.984193 -0.162849
vn 0.069605 0.984193 -0.162849
vn -0.158486 -0.986360 0.044455
vn -0.141098 -0.987382 0.071894
vn -0.141098 -0.987382 0.071894
vn -0.158577 -0.986352 0.044309
vn -0.176388 -0.984193 0.015875
vn -0.176388 -0.984193 0.015875
vn -0.891679 -0.011101 -0.452532
vn -0.891679 -0.011101 -0.452532
vn -0.891679 -0.011101 -0.452532
vn -0.891679 -0.011101 -0.452532
vn 0.154900 -0.011208 0.987867
vn 0.154900 -0.011208 0.987867
vn 0.154900 -0.011208 0.987867
vn 0.154900 -0.011208 0.987867
vn 0.362209 0.078329 0.928800
vn 0.585973 0.078459 0.806523
vn 0.580751 0.154249 0.799335
vn 0.356137 0.155160 0.921462
vn -0.087528 0.981239 -0.171782
vn -0.087528 0.981239 -0.171782
vn -0.087528 0.981239 -0.171782
vn -0.087528 0.981239 -0.171782
vn -0.890255 -0.011188 0.455325
vn -0.890255 -0.011188 0.455325
vn -0.890255 -0.011188 0.455325
vn -0.890255 -0.011188 0.455325
vn 0.888500 -0.022971 -0.458301
vn 0.888500 -0.022971 -0.458301
vn 0.888500 -0.022971 -0.458301
vn 0.888500 -0.022971 -0.458301
vn 0.996917 0.078459 0.000001
vn 0.948125 0.078459 -0.308063
vn 0.939675 0.154249 -0.305318
vn 0.988032 0.154249 0.000001
vn 0.948125 0.078459 0.308064
vn 0.996917 0.078459 0.000001
vn 0.988032 0.154249 0.000001
vn 0.939674 0.154249 0.305319
vn 0.806523 0.078459 0.585973
vn 0.948125 0.078459 0.308064
vn 0.939674 0.154249 0.305319
vn 0.799335 0.154249 0.580751
vn -0.172635 0.984185 0.039710
vn -0.164449 0.986362 0.006824
vn -0.164492 0.986354 0.006995
vn -0.172635 0.984185 0.039710
vn -0.154292 0.986362 -0.057307
vn -0.154280 0.986354 -0.057484
vn -0.151914 0.984185 -0.091115
vn -0.151914 0.984185 -0.091115
vn 0.157982 -0.011151 0.987379
vn 0.157982 -0.011151 0.987379
vn 0.157982 -0.011151 0.987379
vn 0.157982 -0.011151 0.987379
vn 0.455307 -0.011275 -0.890263
vn 0.455307 -0.011275 -0.890263
vn 0.455307 -0.011275 -0.890263
vn 0.455307 -0.011275 -0.890263
s off
g pasted__polySurface2 group
usemtl pasted__lambert4SG
f 1/1/1 2/2/2 3/3/3 4/4/4
f 2/5/5 6/6/6 7/7/7 3/8/8
f 6/9/9 5/10/10 8/11/11 7/12/12
usemtl pasted__lambert5SG
f 3/13/13 4/14/14 10/15/15 9/16/16
s 1
f 3/17/17 7/18/18 11/19/19 9/20/20
f 7/21/18 8/22/21 12/23/22 11/24/19
s off
usemtl pasted__lambert4SG
f 1/25/23 4/26/24 13/27/25 14/28/26
f 8/29/27 5/30/28 15/31/29 16/32/30
f 18/33/31 17/34/32 21/35/33 23/36/34
f 20/37/35 19/38/36 24/39/37 22/40/38
f 19/41/39 18/42/40 23/43/41 24/44/42
s 2
usemtl pasted__lambert5SG
f 23/45/43 21/46/44 25/47/45 27/48/46
f 22/49/47 24/50/48 28/51/49 26/52/50
f 24/53/48 23/54/43 27/55/46 28/56/49
s off
usemtl pasted__lambert4SG
f 21/57/51 17/58/52 30/59/53 29/60/54
f 20/61/55 22/62/56 32/63/57 31/64/58
f 33/65/59 34/66/60 35/67/61 36/68/62
f 34/69/63 37/70/64 38/71/65 35/72/66
f 39/73/67 33/74/68 36/75/69 41/76/70
f 40/77/71 39/78/72 41/79/73 42/80/74
s 3
usemtl pasted__lambert5SG
f 35/81/75 36/82/76 44/83/77 43/84/78
f 38/85/79 35/86/75 43/87/78 45/88/80
s 4
f 41/89/81 36/90/82 44/91/83 46/92/84
f 42/93/85 41/94/81 46/95/84 47/96/86
s off
usemtl pasted__lambert4SG
f 38/97/87 37/98/88 48/99/89 49/100/90
f 40/101/91 42/102/92 50/103/93 51/104/94
f 52/105/95 53/106/96 54/107/97 55/108/98
usemtl pasted__lambert5SG
f 54/109/99 55/110/100 57/111/101 56/112/102
usemtl pasted__lambert4SG
f 54/113/103 53/114/104 58/115/105 59/116/106
f 52/117/107 55/118/108 60/119/109 61/120/110
f 64/121/111 62/122/112 63/123/113 65/124/114
f 66/125/115 64/126/116 65/127/117 67/128/118
f 68/129/119 66/130/120 67/131/121 69/132/122
s 5
usemtl pasted__lambert5SG
f 63/133/123 65/134/124 71/135/125 70/136/126
f 65/137/124 67/138/127 72/139/128 71/140/125
f 67/141/127 69/142/129 77/143/130 72/144/128
s off
usemtl pasted__lambert4SG
f 63/145/131 62/146/132 74/147/133 73/148/134
f 68/149/135 69/150/136 75/151/137 76/152/138
