# This file uses centimeters as units for non-parametric coordinates.

mtllib SeI.mtl
g default
v -0.505538 0.880869 1.110335
v 0.505538 0.880869 1.110335
v -0.505538 0.958646 1.110335
v 0.505538 0.958646 1.110335
v -0.505538 0.958646 -1.110335
v 0.505538 0.958646 -1.110335
v -0.505538 0.880869 -1.110335
v 0.505538 0.880869 -1.110335
vt 0.375000 0.000000
vt 0.625000 0.000000
vt 0.375000 0.250000
vt 0.625000 0.250000
vt 0.375000 0.500000
vt 0.625000 0.500000
vt 0.375000 0.750000
vt 0.625000 0.750000
vt 0.875000 0.000000
vt 0.875000 0.250000
vt 0.125000 0.000000
vt 0.125000 0.250000
vn 0.000000 0.000000 1.000000
vn 0.000000 0.000000 1.000000
vn 0.000000 0.000000 1.000000
vn 0.000000 0.000000 1.000000
vn 0.000000 0.000000 -1.000000
vn 0.000000 0.000000 -1.000000
vn 0.000000 0.000000 -1.000000
vn 0.000000 0.000000 -1.000000
vn 1.000000 0.000000 0.000000
vn 1.000000 0.000000 0.000000
vn 1.000000 0.000000 0.000000
vn 1.000000 0.000000 0.000000
vn -1.000000 0.000000 0.000000
vn -1.000000 0.000000 0.000000
vn -1.000000 0.000000 0.000000
vn -1.000000 0.000000 0.000000
s off
g pasted__pCube1 group
usemtl lambert4SG
f 1/1/1 2/2/2 4/4/3 3/3/4
f 5/5/5 6/6/6 8/8/7 7/7/8
f 2/2/9 8/9/10 6/10/11 4/4/12
f 7/11/13 1/1/14 3/3/15 5/12/16
g default
v -0.511102 -0.093835 1.094686
v 0.511102 -0.093835 1.094686
v -0.511102 -0.016058 1.094686
v 0.511102 -0.016058 1.094686
v -0.511102 -0.016058 -1.094686
v 0.511102 -0.016058 -1.094686
v -0.511102 -0.093835 -1.094686
v 0.511102 -0.093835 -1.094686
vt 0.375000 0.000000
vt 0.625000 0.000000
vt 0.375000 0.250000
vt 0.625000 0.250000
vt 0.375000 0.500000
vt 0.625000 0.500000
vt 0.375000 0.750000
vt 0.625000 0.750000
vt 0.875000 0.000000
vt 0.875000 0.250000
vt 0.125000 0.000000
vt 0.125000 0.250000
vn 0.000000 0.000000 1.000000
vn 0.000000 0.000000 1.000000
vn 0.000000 0.000000 1.000000
vn 0.000000 0.000000 1.000000
vn 0.000000 0.000000 -1.000000
vn 0.000000 0.000000 -1.000000
vn 0.000000 0.000000 -1.000000
vn 0.000000 0.000000 -1.000000
vn 1.000000 0.000000 0.000000
vn 1.000000 0.000000 0.000000
vn 1.000000 0.000000 0.000000
vn 1.000000 0.000000 0.000000
vn -1.000000 0.000000 0.000000
vn -1.000000 0.000000 0.000000
vn -1.000000 0.000000 0.000000
vn -1.000000 0.000000 0.000000
s off
g pasted__pasted__pCube1 pasted__group group1
usemtl lambert4SG
f 9/13/17 10/14/18 12/16/19 11/15/20
f 13/17/21 14/18/22 16/20/23 15/19/24
f 10/14/25 16/21/26 14/22/27 12/16/28
f 15/23/29 9/13/30 11/15/31 13/24/32
