# This file uses centimeters as units for non-parametric coordinates.

mtllib Base.mtl
g default
v 74.344336 -4.805989 43.237908
v 75.265865 -4.805989 44.699004
v 74.344336 -1.352197 43.237908
v 75.265865 -1.352197 44.699004
v 81.882982 -4.805989 44.473860
v 80.543141 -4.805989 45.564207
v 81.882982 -1.352197 44.473860
v 80.543141 -1.352197 45.564207
v 75.759521 -1.352197 34.606000
v 77.099362 -1.352197 33.515654
v 75.759521 -4.805989 34.606000
v 77.099362 -4.805989 33.515654
v 82.376638 -1.352197 34.380857
v 83.298167 -1.352197 35.841952
v 83.298167 -4.805989 35.841952
v 82.376638 -4.805989 34.380857
v 74.344336 -1.352197 43.237908
v 75.759521 -1.352197 34.606000
v 72.665042 -1.352197 43.711142
v 74.319257 -1.352197 33.621321
v 74.331258 -1.352197 46.352933
v 80.900696 -1.352197 47.429984
v 83.323246 -1.352197 45.458540
v 84.977461 -1.352197 35.368718
v 76.741807 -1.352197 31.649876
v 83.311245 -1.352197 32.726927
v 72.665042 -1.352197 43.711142
v 74.319257 -1.352197 33.621321
v 74.331258 -1.352197 46.352933
v 80.900696 -1.352197 47.429984
v 83.323246 -1.352197 45.458540
v 84.977461 -1.352197 35.368718
v 76.741807 -1.352197 31.649876
v 83.311245 -1.352197 32.726927
v 72.665042 -1.352197 43.711142
v 74.319257 -1.352197 33.621321
v 74.331258 -1.994496 46.352933
v 80.900696 -1.994496 47.429984
v 83.323246 -1.994496 45.458540
v 84.977461 -1.994496 35.368718
v 83.311245 -1.994496 32.726927
v 72.665042 -1.994434 43.711142
v 74.319257 -1.994434 33.621321
v 74.331258 -1.994434 46.352933
v 76.741807 -1.994434 31.649876
v 83.311245 -1.994434 32.726927
vt 0.412496 0.250000
vt 0.412496 0.000000
vt 0.587504 0.000000
vt 0.587504 0.250000
vt 0.412496 0.750000
vt 0.412496 0.500000
vt 0.587504 0.500000
vt 0.587504 0.750000
vt 0.653518 0.250000
vt 0.653518 0.000000
vt 0.846482 0.000000
vt 0.846482 0.250000
vt 0.153518 0.250000
vt 0.153518 0.000000
vt 0.346482 0.000000
vt 0.346482 0.250000
vt 0.375000 0.778518
vt 0.625000 0.778518
vt 0.625000 0.971482
vt 0.587504 1.000000
vt 0.412496 1.000000
vt 0.375000 0.971482
vt 0.375000 0.471482
vt 0.625000 0.471482
vt 0.000000 0.000000
vt 1.000000 0.000000
vt 1.000000 1.000000
vt 0.000000 1.000000
vt 0.000000 0.000000
vt 1.000000 0.000000
vt 1.000000 1.000000
vt 0.000000 1.000000
vt 0.000000 0.000000
vt 1.000000 0.000000
vt 1.000000 1.000000
vt 0.000000 1.000000
vt 0.000000 0.000000
vt 1.000000 0.000000
vt 1.000000 1.000000
vt 0.000000 1.000000
vt 0.000000 0.000000
vt 1.000000 0.000000
vt 1.000000 1.000000
vt 0.000000 1.000000
vt 0.000000 0.000000
vt 1.000000 0.000000
vt 1.000000 1.000000
vt 0.000000 1.000000
vt 0.000000 0.000000
vt 1.000000 0.000000
vt 1.000000 1.000000
vt 0.000000 1.000000
vt 0.000000 0.000000
vt 1.000000 0.000000
vt 1.000000 1.000000
vt 0.000000 1.000000
vt 0.000000 0.000000
vt 1.000000 0.000000
vt 1.000000 1.000000
vt 0.000000 1.000000
vt 0.000000 0.000000
vt 1.000000 0.000000
vt 1.000000 1.000000
vt 0.000000 1.000000
vt 0.000000 0.000000
vt 1.000000 0.000000
vt 1.000000 1.000000
vt 0.000000 1.000000
vt 0.000000 0.000000
vt 1.000000 0.000000
vt 1.000000 1.000000
vt 0.000000 1.000000
vt 0.000000 0.000000
vt 1.000000 0.000000
vt 1.000000 1.000000
vt 0.000000 1.000000
vt 0.000000 0.000000
vt 1.000000 0.000000
vt 1.000000 1.000000
vt 0.000000 1.000000
vt 0.000000 0.000000
vt 1.000000 0.000000
vt 1.000000 1.000000
vt 0.000000 1.000000
vt 0.000000 0.000000
vt 1.000000 0.000000
vt 1.000000 1.000000
vt 0.000000 1.000000
vt 0.000000 0.000000
vt 1.000000 0.000000
vt 1.000000 1.000000
vt 0.000000 1.000000
vt 0.000000 0.000000
vt 1.000000 0.000000
vt 1.000000 1.000000
vt 0.000000 1.000000
vt 0.000000 0.000000
vt 1.000000 0.000000
vt 1.000000 1.000000
vt 0.000000 1.000000
vt 0.000000 0.000000
vt 1.000000 0.000000
vt 1.000000 1.000000
vt 0.000000 1.000000
vt 0.000000 0.000000
vt 1.000000 0.000000
vt 1.000000 1.000000
vt 0.000000 1.000000
vt 0.000000 0.000000
vt 1.000000 0.000000
vt 1.000000 1.000000
vt 0.000000 1.000000
vt 0.000000 0.000000
vt 1.000000 0.000000
vt 1.000000 1.000000
vt 0.000000 1.000000
vt 0.000000 0.000000
vt 1.000000 0.000000
vt 1.000000 1.000000
vt 0.000000 1.000000
vt 0.000000 0.000000
vt 1.000000 0.000000
vt 1.000000 1.000000
vt 0.000000 1.000000
vt 0.000000 0.000000
vt 1.000000 0.000000
vt 1.000000 1.000000
vt 0.000000 1.000000
vn -0.161789 0.000000 0.986825
vn -0.161789 0.000000 0.986825
vn -0.161789 0.000000 0.986825
vn -0.161789 0.000000 0.986825
vn 0.161789 0.000000 -0.986825
vn 0.161789 0.000000 -0.986825
vn 0.161789 0.000000 -0.986825
vn 0.161789 0.000000 -0.986825
vn 0.986826 0.000000 0.161788
vn 0.986826 0.000000 0.161788
vn 0.986826 0.000000 0.161788
vn 0.986826 0.000000 0.161788
vn -0.986826 0.000000 -0.161788
vn -0.986826 0.000000 -0.161788
vn -0.986826 0.000000 -0.161788
vn -0.986826 0.000000 -0.161788
vn -0.000000 -1.000000 -0.000000
vn -0.000000 -1.000000 -0.000000
vn -0.000000 -1.000000 -0.000000
vn -0.000000 -1.000000 -0.000000
vn -0.000000 -1.000000 -0.000000
vn -0.000000 -1.000000 -0.000000
vn -0.000000 -1.000000 -0.000000
vn -0.000000 -1.000000 -0.000000
vn -0.845820 0.000000 0.533468
vn -0.845820 0.000000 0.533468
vn -0.845820 0.000000 0.533468
vn -0.845820 0.000000 0.533468
vn 0.631194 0.000000 0.775625
vn 0.631194 0.000000 0.775625
vn 0.631194 0.000000 0.775625
vn 0.631194 0.000000 0.775625
vn -0.631194 0.000000 -0.775625
vn -0.631194 0.000000 -0.775625
vn -0.631194 0.000000 -0.775625
vn -0.631194 0.000000 -0.775625
vn 0.845820 0.000000 -0.533468
vn 0.845820 0.000000 -0.533468
vn 0.845820 0.000000 -0.533468
vn 0.845820 0.000000 -0.533468
vn 0.000000 0.000000 0.000000
vn 0.000000 0.000000 0.000000
vn 0.000000 0.000000 0.000000
vn 0.000000 0.000000 0.000000
vn -0.000000 1.000000 -0.000000
vn -0.000000 1.000000 -0.000000
vn -0.000000 1.000000 -0.000000
vn -0.000000 1.000000 -0.000000
vn -0.000000 -1.000000 -0.000000
vn -0.000000 -1.000000 -0.000000
vn -0.000000 -1.000000 -0.000000
vn -0.000000 -1.000000 -0.000000
vn -0.000000 -1.000000 -0.000000
vn -0.000000 -1.000000 -0.000000
vn -0.000000 -1.000000 -0.000000
vn -0.000000 -1.000000 -0.000000
vn -0.000000 -1.000000 -0.000000
vn -0.000000 -1.000000 -0.000000
vn -0.000000 -1.000000 -0.000000
vn -0.000000 -1.000000 -0.000000
vn 0.000000 -1.000000 0.000000
vn 0.000000 -1.000000 0.000000
vn 0.000000 -1.000000 0.000000
vn 0.000000 -1.000000 0.000000
vn 0.000000 -1.000000 0.000000
vn 0.000000 -1.000000 0.000000
vn 0.000000 -1.000000 0.000000
vn 0.000000 -1.000000 0.000000
vn -0.000000 -1.000000 -0.000000
vn -0.000000 -1.000000 -0.000000
vn -0.000000 -1.000000 -0.000000
vn -0.000000 -1.000000 -0.000000
vn 0.000000 -1.000000 0.000000
vn 0.000000 -1.000000 0.000000
vn 0.000000 -1.000000 0.000000
vn 0.000000 -1.000000 0.000000
vn 0.000000 0.000000 0.000000
vn 0.000000 0.000000 0.000000
vn 0.000000 0.000000 0.000000
vn 0.000000 0.000000 0.000000
vn 0.000000 0.000000 0.000000
vn 0.000000 0.000000 0.000000
vn 0.000000 0.000000 0.000000
vn 0.000000 0.000000 0.000000
vn 0.000000 0.000000 0.000000
vn 0.000000 0.000000 0.000000
vn 0.000000 0.000000 0.000000
vn 0.000000 0.000000 0.000000
vn 0.000000 0.000000 0.000000
vn 0.000000 0.000000 0.000000
vn 0.000000 0.000000 0.000000
vn 0.000000 0.000000 0.000000
vn 0.000000 0.000000 0.000000
vn 0.000000 0.000000 0.000000
vn 0.000000 0.000000 0.000000
vn 0.000000 0.000000 0.000000
vn 0.000000 0.000000 0.000000
vn 0.000000 0.000000 0.000000
vn 0.000000 0.000000 0.000000
vn 0.000000 0.000000 0.000000
vn 0.000000 0.000000 0.000000
vn 0.000000 0.000000 0.000000
vn 0.000000 0.000000 0.000000
vn 0.000000 0.000000 0.000000
vn 0.000000 0.000000 0.000000
vn 0.000000 0.000000 0.000000
vn 0.000000 0.000000 0.000000
vn 0.000000 0.000000 0.000000
vn 0.000000 0.000000 0.000000
vn 0.000000 0.000000 0.000000
vn 0.000000 0.000000 0.000000
vn 0.000000 0.000000 0.000000
vn 0.161789 0.000000 -0.986825
vn 0.161789 0.000000 -0.986825
vn 0.161789 0.000000 -0.986825
vn 0.161789 0.000000 -0.986825
vn -0.986825 0.000000 -0.161789
vn -0.986825 0.000000 -0.161789
vn -0.986825 0.000000 -0.161789
vn -0.986825 0.000000 -0.161789
vn -0.631194 0.000000 -0.775625
vn -0.631194 0.000000 -0.775625
vn -0.631194 0.000000 -0.775625
vn -0.631194 0.000000 -0.775625
vn -0.845819 0.000000 0.533470
vn -0.845819 0.000000 0.533470
vn -0.845819 0.000000 0.533470
vn -0.845819 0.000000 0.533470
vn -0.986825 0.000000 -0.161789
vn -0.986825 0.000000 -0.161789
vn -0.986825 0.000000 -0.161789
vn -0.986825 0.000000 -0.161789
vn -0.845819 0.000000 0.533470
vn -0.845819 0.000000 0.533470
vn -0.845819 0.000000 0.533470
vn -0.845819 0.000000 0.533470
vn 0.161789 0.000000 -0.986825
vn 0.161789 0.000000 -0.986825
vn 0.161789 0.000000 -0.986825
vn 0.161789 0.000000 -0.986825
vn 0.631195 0.000000 0.775624
vn 0.631195 0.000000 0.775624
vn 0.631195 0.000000 0.775624
vn 0.631195 0.000000 0.775624
s off
g Base:pCube1
usemtl Base:initialShadingGroup
f 4/1/1 2/2/2 6/3/3 8/4/4
f 12/5/5 10/6/6 13/7/7 16/8/8
f 7/9/9 5/10/10 15/11/11 14/12/12
f 9/13/13 11/14/14 1/15/15 3/16/16
f 11/17/17 12/5/18 16/8/19 15/18/20 5/19/21 6/20/22 2/21/23 1/22/24
f 1/15/25 2/2/26 4/1/27 3/16/28
f 6/3/29 5/10/30 7/9/31 8/4/32
f 9/23/33 10/6/34 12/5/35 11/17/36
f 13/7/37 14/24/38 15/18/39 16/8/40
f 9/25/41 3/26/42 17/27/43 18/28/44
f 3/29/45 9/30/46 20/31/47 19/32/48
f 4/33/49 8/34/50 22/35/51 21/36/52
f 3/37/53 4/38/54 21/39/55 19/40/56
f 7/41/57 14/42/58 24/43/59 23/44/60
f 8/45/61 7/46/62 23/47/63 22/48/64
f 13/49/65 10/50/66 25/51/67 26/52/68
f 10/53/69 9/54/70 20/55/71 25/56/72
f 14/57/73 13/58/74 26/59/75 24/60/76
f 19/61/77 20/62/78 28/63/79 27/64/80
f 21/65/81 22/66/82 30/67/83 29/68/84
f 19/69/85 21/70/86 29/71/87 27/72/88
f 23/73/89 24/74/90 32/75/91 31/76/92
f 22/77/93 23/78/94 31/79/95 30/80/96
f 26/81/97 25/82/98 33/83/99 34/84/100
f 25/85/101 20/86/102 28/87/103 33/88/104
f 24/89/105 26/90/106 34/91/107 32/92/108
f 19/93/109 20/94/110 36/95/111 35/96/112
f 21/97/113 22/98/114 38/99/115 37/100/116
f 23/101/117 24/102/118 40/103/119 39/104/120
f 22/105/121 23/106/122 39/107/123 38/108/124
f 24/109/125 26/110/126 41/111/127 40/112/128
f 19/113/129 20/114/130 43/115/131 42/116/132
f 21/117/133 19/118/134 42/119/135 44/120/136
f 25/121/137 26/122/138 46/123/139 45/124/140
f 25/125/141 20/126/142 43/127/143 45/128/144
