# This file uses centimeters as units for non-parametric coordinates.

mtllib Isla.mtl
g default
v 79.058627 -3.479469 38.569330
v 81.075232 -3.479469 38.903913
v 79.058627 -1.780167 38.569330
v 81.075232 -1.780167 38.903913
v 81.097929 -1.780167 36.208290
v 81.416031 -1.780167 36.800889
v 81.416031 -3.479469 36.800889
v 81.097929 -3.479469 36.208290
v 79.450536 -1.780167 36.150896
v 79.645930 -1.780167 35.967378
v 79.450536 -3.479469 36.150896
v 79.645930 -3.479469 35.967378
v 78.786649 -3.479469 38.549694
v 78.786649 -1.780167 38.549694
v 76.847359 -1.780167 38.211641
v 76.847359 -3.479469 38.211641
v 77.204160 -1.780167 36.111340
v 77.681168 -1.780167 35.653939
v 77.681168 -3.479469 35.653939
v 77.204160 -3.479469 36.111340
v 79.077508 -3.479469 35.897342
v 79.196970 -3.479469 36.134390
v 79.077508 -1.780167 35.897342
v 79.196970 -1.780167 36.134390
v 76.765247 -3.174343 42.052877
v 77.159127 -3.174343 42.621618
v 76.765247 -1.510354 42.052877
v 77.159127 -1.510354 42.621618
v 79.921040 -3.174343 42.576472
v 79.368271 -3.174343 42.988154
v 79.921040 -1.510354 42.576472
v 79.368271 -1.510354 42.988154
v 77.661441 -1.510354 36.522480
v 78.214202 -1.510354 36.110796
v 77.661441 -3.174343 36.522480
v 78.214202 -3.174343 36.110796
v 80.423353 -1.510354 36.477330
v 80.817234 -1.510354 37.046075
v 80.817234 -3.174343 37.046075
v 80.423353 -3.174343 36.477330
v 78.508346 -3.479469 40.490895
v 76.478527 -3.479469 40.131412
v 78.508346 -1.780167 40.490895
v 76.478527 -1.780167 40.131412
v 76.431840 -1.780167 42.827448
v 76.116432 -1.780167 42.230786
v 76.116432 -3.479469 42.230786
v 76.431840 -3.479469 42.827448
v 78.091939 -1.780167 42.905128
v 77.893363 -1.780167 43.086285
v 78.091939 -3.479469 42.905128
v 77.893363 -3.479469 43.086285
v 78.913449 -3.479469 40.548614
v 78.913449 -1.780167 40.548614
v 80.797098 -1.780167 40.855912
v 80.797098 -3.479469 40.855912
v 80.461609 -1.780167 42.959808
v 80.001047 -1.780167 43.424264
v 80.001047 -3.479469 43.424264
v 80.461609 -3.479469 42.959808
v 78.644776 -3.479469 43.203002
v 78.527640 -3.479469 42.968056
v 78.644776 -1.780167 43.203002
v 78.527640 -1.780167 42.968056
vt 0.375000 0.000000
vt 0.625000 0.000000
vt 0.625000 0.250000
vt 0.375000 0.250000
vt 0.625000 0.450005
vt 0.575005 0.500000
vt 0.394998 0.500000
vt 0.375000 0.480001
vt 0.394998 0.750000
vt 0.575005 0.750000
vt 0.825005 0.000000
vt 0.825005 0.250000
vt 0.144999 0.250000
vt 0.144999 0.000000
vt 0.625000 0.799995
vt 0.375000 0.769999
vt 0.625000 1.000000
vt 0.375000 1.000000
vt 0.375000 0.000000
vt 0.605002 0.000000
vt 0.605002 0.250000
vt 0.375000 0.250000
vt 0.625000 0.269998
vt 0.625000 0.450005
vt 0.575005 0.500000
vt 0.375000 0.500000
vt 0.575005 0.750000
vt 0.375000 0.750000
vt 0.625000 0.799995
vt 0.625000 0.980002
vt 0.605002 1.000000
vt 0.375000 1.000000
vt 0.644998 0.250000
vt 0.644998 -0.000000
vt 0.825005 0.000000
vt 0.825005 0.250000
vt 0.125000 0.000000
vt 0.125000 0.250000
vt 0.412496 0.250000
vt 0.412496 0.000000
vt 0.587504 0.000000
vt 0.587504 0.250000
vt 0.412496 0.750000
vt 0.412496 0.500000
vt 0.587504 0.500000
vt 0.587504 0.750000
vt 0.643823 0.250000
vt 0.643823 0.000000
vt 0.856177 0.000000
vt 0.856177 0.250000
vt 0.143823 0.250000
vt 0.143823 0.000000
vt 0.356177 0.000000
vt 0.356177 0.250000
vt 0.375000 0.268823
vt 0.625000 0.268823
vt 0.625000 0.481177
vt 0.375000 0.481177
vt 0.375000 0.768823
vt 0.625000 0.768823
vt 0.625000 0.981177
vt 0.587504 1.000000
vt 0.412496 1.000000
vt 0.375000 0.981177
vt 0.375000 0.000000
vt 0.625000 0.000000
vt 0.625000 0.250000
vt 0.375000 0.250000
vt 0.625000 0.450005
vt 0.575005 0.500000
vt 0.394998 0.500000
vt 0.375000 0.480002
vt 0.394998 0.750000
vt 0.575005 0.750000
vt 0.825005 0.000000
vt 0.825005 0.250000
vt 0.144998 0.250000
vt 0.144998 0.000000
vt 0.625000 0.799995
vt 0.375000 0.769998
vt 0.625000 1.000000
vt 0.375000 1.000000
vt 0.375000 0.000000
vt 0.605002 0.000000
vt 0.605001 0.250000
vt 0.375000 0.250000
vt 0.625000 0.269998
vt 0.625000 0.450005
vt 0.575005 0.500000
vt 0.375000 0.500000
vt 0.575005 0.750000
vt 0.375000 0.750000
vt 0.625000 0.799995
vt 0.625000 0.980002
vt 0.605002 1.000000
vt 0.375000 1.000000
vt 0.644998 0.250000
vt 0.644998 -0.000000
vt 0.825005 0.000000
vt 0.825005 0.250000
vt 0.125000 0.000000
vt 0.125000 0.250000
vn -0.163677 0.000000 0.986514
vn -0.163677 0.000000 0.986514
vn -0.163677 0.000000 0.986514
vn -0.163677 0.000000 0.986514
vn -0.000000 1.000000 -0.000000
vn -0.000000 1.000000 -0.000000
vn -0.000000 1.000000 -0.000000
vn -0.000000 1.000000 -0.000000
vn -0.000000 1.000000 -0.000000
vn -0.000000 1.000000 -0.000000
vn 0.163680 0.000000 -0.986513
vn 0.163680 0.000000 -0.986513
vn 0.163680 0.000000 -0.986513
vn 0.163680 0.000000 -0.986513
vn 0.987123 0.000000 0.159965
vn 0.987123 0.000000 0.159965
vn 0.987123 0.000000 0.159965
vn 0.987123 0.000000 0.159965
vn -0.987123 0.000000 -0.159964
vn -0.987123 0.000000 -0.159964
vn -0.987123 0.000000 -0.159964
vn -0.987123 0.000000 -0.159964
vn 0.881084 0.000000 -0.472960
vn 0.881084 0.000000 -0.472960
vn 0.881084 0.000000 -0.472960
vn 0.881084 0.000000 -0.472960
vn -0.000000 -1.000000 -0.000000
vn -0.000000 -1.000000 -0.000000
vn -0.000000 -1.000000 -0.000000
vn -0.000000 -1.000000 -0.000000
vn -0.000000 -1.000000 -0.000000
vn -0.000000 -1.000000 -0.000000
vn -0.684606 0.000000 -0.728913
vn -0.684606 0.000000 -0.728913
vn -0.684606 0.000000 -0.728913
vn -0.684606 0.000000 -0.728913
vn 0.985875 0.000000 0.167484
vn 0.985875 0.000000 0.167484
vn 0.985875 0.000000 0.167484
vn 0.985875 0.000000 0.167484
vn 0.000000 1.000000 0.000000
vn 0.000000 1.000000 0.000000
vn 0.000000 1.000000 0.000000
vn 0.000000 1.000000 0.000000
vn 0.000000 1.000000 0.000000
vn 0.000000 1.000000 0.000000
vn -0.985875 0.000000 -0.167481
vn -0.985875 0.000000 -0.167481
vn -0.985875 0.000000 -0.167481
vn -0.985875 0.000000 -0.167481
vn 0.000000 -1.000000 0.000000
vn 0.000000 -1.000000 0.000000
vn 0.000000 -1.000000 0.000000
vn 0.000000 -1.000000 0.000000
vn 0.000000 -1.000000 0.000000
vn 0.000000 -1.000000 0.000000
vn 0.171727 0.000000 -0.985145
vn 0.171727 0.000000 -0.985145
vn 0.171727 0.000000 -0.985145
vn 0.171727 0.000000 -0.985145
vn -0.171727 0.000000 0.985144
vn -0.171727 0.000000 0.985144
vn -0.171727 0.000000 0.985144
vn -0.171727 0.000000 0.985144
vn -0.692119 0.000000 -0.721783
vn -0.692119 0.000000 -0.721783
vn -0.692119 0.000000 -0.721783
vn -0.692119 0.000000 -0.721783
vn 0.893009 0.000000 -0.450040
vn 0.893009 0.000000 -0.450040
vn 0.893009 0.000000 -0.450040
vn 0.893009 0.000000 -0.450040
vn -0.163680 0.000000 0.986514
vn -0.163680 0.000000 0.986514
vn -0.163680 0.000000 0.986514
vn -0.163680 0.000000 0.986514
vn 0.163678 0.000000 -0.986514
vn 0.163678 0.000000 -0.986514
vn 0.163678 0.000000 -0.986514
vn 0.163678 0.000000 -0.986514
vn 0.987123 0.000000 0.159962
vn 0.987123 0.000000 0.159962
vn 0.987123 0.000000 0.159962
vn 0.987123 0.000000 0.159962
vn -0.987123 0.000000 -0.159962
vn -0.987123 0.000000 -0.159962
vn -0.987123 0.000000 -0.159962
vn -0.987123 0.000000 -0.159962
vn 0.000000 1.000000 0.000000
vn 0.000000 1.000000 0.000000
vn 0.000000 1.000000 0.000000
vn 0.000000 1.000000 0.000000
vn 0.000000 1.000000 0.000000
vn 0.000000 1.000000 0.000000
vn 0.000000 1.000000 0.000000
vn 0.000000 1.000000 0.000000
vn -0.000000 -1.000000 -0.000000
vn -0.000000 -1.000000 -0.000000
vn -0.000000 -1.000000 -0.000000
vn -0.000000 -1.000000 -0.000000
vn -0.000000 -1.000000 -0.000000
vn -0.000000 -1.000000 -0.000000
vn -0.000000 -1.000000 -0.000000
vn -0.000000 -1.000000 -0.000000
vn -0.822101 0.000000 0.569342
vn -0.822101 0.000000 0.569342
vn -0.822101 0.000000 0.569342
vn -0.822101 0.000000 0.569342
vn 0.597308 0.000000 0.802012
vn 0.597308 0.000000 0.802012
vn 0.597308 0.000000 0.802012
vn 0.597308 0.000000 0.802012
vn -0.597316 0.000000 -0.802006
vn -0.597316 0.000000 -0.802006
vn -0.597316 0.000000 -0.802006
vn -0.597316 0.000000 -0.802006
vn 0.822101 0.000000 -0.569342
vn 0.822101 0.000000 -0.569342
vn 0.822101 0.000000 -0.569342
vn 0.822101 0.000000 -0.569342
vn 0.174388 0.000000 -0.984677
vn 0.174388 0.000000 -0.984677
vn 0.174388 0.000000 -0.984677
vn 0.174388 0.000000 -0.984677
vn 0.000000 1.000000 0.000000
vn 0.000000 1.000000 0.000000
vn 0.000000 1.000000 0.000000
vn 0.000000 1.000000 0.000000
vn 0.000000 1.000000 0.000000
vn 0.000000 1.000000 0.000000
vn -0.174385 0.000000 0.984677
vn -0.174385 0.000000 0.984677
vn -0.174385 0.000000 0.984677
vn -0.174385 0.000000 0.984677
vn -0.985450 0.000000 -0.169968
vn -0.985450 0.000000 -0.169968
vn -0.985450 0.000000 -0.169968
vn -0.985450 0.000000 -0.169968
vn 0.985449 0.000000 0.169971
vn 0.985449 0.000000 0.169971
vn 0.985449 0.000000 0.169971
vn 0.985449 0.000000 0.169971
vn -0.884077 0.000000 0.467341
vn -0.884077 0.000000 0.467341
vn -0.884077 0.000000 0.467341
vn -0.884077 0.000000 0.467341
vn 0.000000 -1.000000 0.000000
vn 0.000000 -1.000000 0.000000
vn 0.000000 -1.000000 0.000000
vn 0.000000 -1.000000 0.000000
vn 0.000000 -1.000000 0.000000
vn 0.000000 -1.000000 0.000000
vn 0.673954 0.000000 0.738773
vn 0.673954 0.000000 0.738773
vn 0.673954 0.000000 0.738773
vn 0.673954 0.000000 0.738773
vn -0.987523 0.000000 -0.157472
vn -0.987523 0.000000 -0.157472
vn -0.987523 0.000000 -0.157472
vn -0.987523 0.000000 -0.157472
vn 0.000000 1.000000 0.000000
vn 0.000000 1.000000 0.000000
vn 0.000000 1.000000 0.000000
vn 0.000000 1.000000 0.000000
vn 0.000000 1.000000 0.000000
vn 0.000000 1.000000 0.000000
vn 0.987524 0.000000 0.157471
vn 0.987524 0.000000 0.157471
vn 0.987524 0.000000 0.157471
vn 0.987524 0.000000 0.157471
vn 0.000000 -1.000000 0.000000
vn 0.000000 -1.000000 0.000000
vn 0.000000 -1.000000 0.000000
vn 0.000000 -1.000000 0.000000
vn 0.000000 -1.000000 0.000000
vn 0.000000 -1.000000 0.000000
vn -0.161010 0.000000 0.986953
vn -0.161010 0.000000 0.986953
vn -0.161010 0.000000 0.986953
vn -0.161010 0.000000 0.986953
vn 0.161012 0.000000 -0.986953
vn 0.161012 0.000000 -0.986953
vn 0.161012 0.000000 -0.986953
vn 0.161012 0.000000 -0.986953
vn 0.710075 0.000000 0.704126
vn 0.710075 0.000000 0.704126
vn 0.710075 0.000000 0.704126
vn 0.710075 0.000000 0.704126
vn -0.894942 0.000000 0.446182
vn -0.894942 0.000000 0.446182
vn -0.894942 0.000000 0.446182
vn -0.894942 0.000000 0.446182
s off
g Isla:pCube4
usemtl Isla:lambert3SG
f 1/1/1 2/2/2 4/3/3 3/4/4
f 3/4/5 4/3/6 6/5/7 5/6/8 10/7/9 9/8/10
f 12/9/11 10/7/12 5/6/13 8/10/14
f 2/2/15 7/11/16 6/12/17 4/3/18
f 9/13/19 11/14/20 1/1/21 3/4/22
f 5/6/23 6/5/24 7/15/25 8/10/26
f 11/16/27 12/9/28 8/10/29 7/15/30 2/17/31 1/18/32
f 9/8/33 10/7/34 12/9/35 11/16/36
f 13/19/37 22/20/38 24/21/39 14/22/40
f 14/22/41 24/21/42 23/23/43 18/24/44 17/25/45 15/26/46
f 15/26/47 17/25/48 20/27/49 16/28/50
f 16/28/51 20/27/52 19/29/53 21/30/54 22/31/55 13/32/56
f 23/33/57 21/34/58 19/35/59 18/36/60
f 16/37/61 13/19/62 14/22/63 15/38/64
f 17/25/65 18/24/66 19/29/67 20/27/68
f 22/20/69 21/34/70 23/33/71 24/21/72
f 28/39/73 26/40/74 30/41/75 32/42/76
f 36/43/77 34/44/78 37/45/79 40/46/80
f 31/47/81 29/48/82 39/49/83 38/50/84
f 33/51/85 35/52/86 25/53/87 27/54/88
f 27/55/89 28/39/90 32/42/91 31/56/92 38/57/93 37/45/94 34/44/95 33/58/96
f 35/59/97 36/43/98 40/46/99 39/60/100 29/61/101 30/62/102 26/63/103 25/64/104
f 25/53/105 26/40/106 28/39/107 27/54/108
f 30/41/109 29/48/110 31/47/111 32/42/112
f 33/58/113 34/44/114 36/43/115 35/59/116
f 37/45/117 38/57/118 39/60/119 40/46/120
f 41/65/121 42/66/122 44/67/123 43/68/124
f 43/68/125 44/67/126 46/69/127 45/70/128 50/71/129 49/72/130
f 52/73/131 50/71/132 45/70/133 48/74/134
f 42/66/135 47/75/136 46/76/137 44/67/138
f 49/77/139 51/78/140 41/65/141 43/68/142
f 45/70/143 46/69/144 47/79/145 48/74/146
f 51/80/147 52/73/148 48/74/149 47/79/150 42/81/151 41/82/152
f 49/72/153 50/71/154 52/73/155 51/80/156
f 53/83/157 62/84/158 64/85/159 54/86/160
f 54/86/161 64/85/162 63/87/163 58/88/164 57/89/165 55/90/166
f 55/90/167 57/89/168 60/91/169 56/92/170
f 56/92/171 60/91/172 59/93/173 61/94/174 62/95/175 53/96/176
f 63/97/177 61/98/178 59/99/179 58/100/180
f 56/101/181 53/83/182 54/86/183 55/102/184
f 57/89/185 58/88/186 59/93/187 60/91/188
f 62/84/189 61/98/190 63/97/191 64/85/192
