# This file uses centimeters as units for non-parametric coordinates.

mtllib Entrada.mtl
g default
v -0.553214 0.010428 4.046495
v 0.553214 0.010428 4.046495
v -0.553214 0.010428 3.222072
v 0.000000 0.010428 3.309695
v 0.553214 0.010428 3.222072
v 0.553214 0.010428 3.221289
v 0.553214 0.516739 3.181442
v 0.553214 0.563698 3.170168
v 0.539347 0.686787 3.142814
v 0.498433 0.803705 3.121224
v 0.432533 0.908587 3.106482
v 0.344944 0.996176 3.099327
v 0.305821 1.020758 3.099621
v 0.240063 1.062078 3.092922
v 0.123145 1.102989 3.094494
v 0.000000 1.116856 3.108252
v -0.539347 0.686787 3.142814
v -0.553214 0.563698 3.170168
v -0.553214 0.516739 3.181442
v -0.553214 0.010428 3.221289
v 0.000000 1.116856 3.108252
v 0.000000 1.116856 3.108252
v -0.123145 1.102989 3.094494
v -0.240063 1.062078 3.092922
v -0.305821 1.020758 3.099621
v -0.344944 0.996176 3.099327
v -0.432533 0.908587 3.106482
v -0.498433 0.803705 3.121224
v 0.000000 1.116856 4.045712
v 0.123145 1.102989 4.045712
v 0.240063 1.062078 4.045712
v 0.344944 0.996176 4.045712
v 0.432533 0.908587 4.045712
v 0.498433 0.803705 4.045712
v 0.539347 0.686787 4.045712
v 0.553214 0.563698 4.045712
v 0.553214 0.010428 4.045712
v -0.553214 0.563698 4.045712
v -0.539347 0.686787 4.045712
v -0.553214 0.010428 4.045712
v -0.498433 0.803705 4.045712
v -0.432533 0.908587 4.045712
v -0.344944 0.996176 4.045712
v -0.240063 1.062078 4.045712
v -0.123145 1.102989 4.045712
v 0.000000 1.116856 4.045712
vt 0.625000 0.562176
vt 0.625000 0.811097
vt 0.375000 0.811097
vt 0.375000 0.562176
vt 0.500000 0.588632
vt 0.994639 0.101459
vt 0.989273 0.022982
vt 1.012435 0.099018
vt 1.013346 0.016159
vt 0.991070 0.098885
vt 0.984810 0.020477
vt 1.008037 0.101998
vt 1.012435 0.019125
vt 1.010388 0.108377
vt 1.008037 0.025435
vt 0.986041 0.093873
vt 1.004509 0.015449
vt 0.873921 0.143926
vt 0.872331 0.258328
vt 0.874388 0.268939
vt 0.984244 0.017971
vt 0.982438 0.047223
vt 0.986607 0.096380
vt 0.004648 0.890267
vt 0.005509 0.984917
vt 0.005509 0.892648
vt 0.023684 0.987308
vt 0.023684 0.898588
vt 0.014656 0.993228
vt -0.002997 0.895282
vt 0.011821 0.975441
vt 0.009922 0.900287
vt 0.006933 0.980614
vt 0.126079 0.143926
vt 0.125612 0.268939
vt 0.127669 0.258328
vt 0.011353 0.978009
vt 0.013475 0.927647
vt 0.010390 0.897719
vt 0.003357 0.983258
vt 0.003357 0.983258
vt 0.005502 0.902891
vt -0.001761 0.106442
vt 0.019517 0.025776
vt 0.021314 0.101679
vt 0.027866 0.021814
vt 0.029664 0.097718
vt 0.020683 0.019519
vt 0.022480 0.095422
vt -0.003796 0.020491
vt -0.009921 0.108377
vt -0.002605 0.018776
vt -0.002605 0.095339
vt -0.004502 0.009472
vt -0.004502 0.089364
vt -0.009921 0.016159
vt 0.625000 0.268939
vt 0.625000 0.143926
vt 1.003422 0.890267
vt 0.375000 0.268939
vt 0.989986 0.985196
vt 0.989986 0.892927
vt 0.375000 0.143926
vt 0.990021 0.987724
vt 0.990021 0.899004
vt 1.003422 0.993228
vt 1.006045 0.887937
vt 0.987587 0.967230
vt 0.986156 0.889508
vt 0.980981 0.969694
vt 0.979550 0.891971
vt 0.987606 0.972706
vt 0.986174 0.894984
vt 1.007666 0.975947
vn 0.000000 -1.000000 0.000000
vn 0.000000 -1.000000 0.000000
vn 0.000000 -1.000000 0.000000
vn 0.000000 -1.000000 0.000000
vn 0.000000 -1.000000 0.000000
vn 0.111900 0.993720 0.000000
vn 0.111900 0.993720 0.000000
vn 0.111900 0.993720 0.000000
vn 0.111900 0.993719 0.000000
vn 0.993714 0.111950 0.000000
vn 0.993714 0.111950 0.000000
vn 0.993714 0.111950 0.000000
vn 0.993714 0.111950 0.000000
vn 0.330276 0.943884 0.000000
vn 0.330276 0.943884 0.000000
vn 0.330276 0.943884 0.000000
vn 0.330276 0.943884 0.000000
vn 0.943877 0.330298 0.000000
vn 0.943877 0.330298 0.000000
vn 0.943877 0.330298 0.000000
vn 0.943877 0.330298 0.000000
vn 0.846731 0.532022 0.000000
vn 0.846730 0.532022 0.000000
vn 0.846730 0.532022 0.000000
vn 0.846730 0.532022 0.000000
vn 0.707107 0.707107 0.000000
vn 0.707107 0.707107 0.000000
vn 0.707107 0.707107 0.000000
vn 0.707107 0.707107 0.000000
vn 1.000000 0.000000 0.000000
vn 1.000000 0.000000 0.000000
vn 1.000000 0.000000 0.000000
vn 1.000000 0.000000 0.000000
vn 1.000000 0.000000 0.000000
vn 0.532037 0.846721 -0.000000
vn 0.532037 0.846721 -0.000000
vn 0.532037 0.846721 -0.000000
vn 0.532037 0.846721 -0.000000
vn 0.532037 0.846721 -0.000000
vn -0.993714 0.111950 0.000000
vn -0.993714 0.111950 0.000000
vn -0.993714 0.111950 0.000000
vn -0.993714 0.111950 0.000000
vn -0.943877 0.330298 0.000000
vn -0.943877 0.330298 0.000000
vn -0.943877 0.330298 0.000000
vn -0.943877 0.330298 0.000000
vn -0.846730 0.532022 0.000000
vn -0.846730 0.532022 0.000000
vn -0.846730 0.532022 0.000000
vn -0.846731 0.532022 0.000000
vn -0.707107 0.707107 0.000000
vn -0.707107 0.707107 0.000000
vn -0.707107 0.707107 0.000000
vn -0.707107 0.707107 0.000000
vn -0.330276 0.943884 0.000000
vn -0.330276 0.943884 0.000000
vn -0.330276 0.943884 0.000000
vn -0.330276 0.943884 0.000000
vn -1.000000 -0.000000 0.000000
vn -1.000000 -0.000000 0.000000
vn -1.000000 -0.000000 0.000000
vn -1.000000 -0.000000 0.000000
vn -1.000000 -0.000000 0.000000
vn -0.532037 0.846721 -0.000000
vn -0.532037 0.846721 -0.000000
vn -0.532037 0.846721 -0.000000
vn -0.532037 0.846721 -0.000000
vn -0.532037 0.846721 -0.000000
vn -0.111900 0.993720 0.000000
vn -0.111900 0.993720 0.000000
vn -0.000000 0.000000 0.000000
vn -0.000000 0.000000 0.000000
vn -0.111900 0.993719 0.000000
s off
g polySurface6 Entrada1:polySurface3
usemtl Entrada1:initialShadingGroup
f 5/1/1 2/2/2 1/3/3 3/4/4 4/5/5
usemtl Entrada:initialShadingGroup
f 16/6/6 29/43/7 30/44/8 15/7/9
f 9/8/10 35/55/11 36/56/12 8/9/13
f 15/10/14 30/45/15 31/46/16 14/11/17
f 10/12/18 34/53/19 35/54/20 9/13/21
f 11/14/22 33/51/23 34/52/24 10/15/25
f 12/16/26 32/49/27 33/50/28 11/17/29
f 37/58/30 6/18/31 7/19/32 8/20/33 36/57/34
f 31/47/35 32/48/36 12/21/37 13/22/38 14/23/39
f 18/24/40 38/59/41 39/61/42 17/25/43
f 17/26/44 39/62/45 41/64/46 28/27/47
f 28/28/48 41/65/49 42/66/50 27/29/51
f 27/30/52 42/67/53 43/68/54 26/31/55
f 24/32/56 44/71/57 45/72/58 23/33/59
f 20/34/60 40/63/61 38/60/62 18/35/63 19/36/64
f 43/69/65 44/70/66 24/37/67 25/38/68 26/39/69
f 45/73/70 46/74/71 21/40/72 22/41/73 23/42/74
