# This file uses centimeters as units for non-parametric coordinates.

mtllib Entrada.mtl
g default
v -0.553214 0.563698 4.045712
v -0.539347 0.686787 4.045712
v -0.498433 0.803705 4.045712
v -0.432533 0.908587 4.045712
v -0.344944 0.996176 4.045712
v -0.240063 1.062078 4.045712
v -0.123145 1.102989 4.045712
v 0.000000 1.116856 4.045712
v 0.123145 1.102989 4.045712
v 0.539347 0.686787 4.045712
v 0.553214 0.563698 4.045712
v 0.240063 1.062078 4.045712
v 0.498433 0.803705 4.045712
v 0.432533 0.908587 4.045712
v 0.344944 0.996176 4.045712
v -0.553214 0.010428 4.045712
v 0.553214 0.010428 4.045712
v -0.539347 0.686787 3.142814
v -0.553214 0.563698 3.170168
v -0.553214 0.516739 3.181442
v -0.553214 0.010428 3.221289
v 0.000000 0.010428 3.308911
v 0.553214 0.010428 3.221289
v 0.553214 0.516739 3.181442
v 0.553214 0.563698 3.170168
v 0.539347 0.686787 3.142814
v 0.498433 0.803705 3.121224
v 0.432533 0.908587 3.106482
v 0.344944 0.996176 3.099327
v 0.305821 1.020758 3.099621
v 0.240063 1.062078 3.092922
v 0.123145 1.102989 3.094494
v 0.000000 1.116856 3.108252
v 0.000000 1.116856 3.108252
v -0.123145 1.102989 3.094494
v -0.240063 1.062078 3.092922
v -0.305821 1.020758 3.099621
v -0.344944 0.996176 3.099327
v -0.432533 0.908587 3.106482
v -0.498433 0.803705 3.121224
vt 0.004648 0.890267
vt 1.003422 0.890267
vt 0.989986 0.985196
vt 0.005509 0.984917
vt 0.005509 0.892648
vt 0.989986 0.892927
vt 0.990021 0.987724
vt 0.023684 0.987308
vt 0.023684 0.898588
vt 0.990021 0.899004
vt 1.003422 0.993228
vt 0.014656 0.993228
vt -0.002997 0.895282
vt 1.006045 0.887937
vt 0.987587 0.967230
vt 0.011821 0.975441
vt 0.009922 0.900287
vt 0.979550 0.891971
vt 0.987606 0.972706
vt 0.006933 0.980614
vt 0.994639 0.101459
vt -0.001761 0.106442
vt 0.019517 0.025776
vt 0.989273 0.022982
vt 1.012435 0.099018
vt -0.004502 0.089364
vt -0.009921 0.016159
vt 1.013346 0.016159
vt 0.991070 0.098885
vt 0.021314 0.101679
vt 0.027866 0.021814
vt 0.984810 0.020477
vt 1.008037 0.101998
vt -0.002605 0.095339
vt -0.004502 0.009472
vt 1.012435 0.019125
vt 1.010388 0.108377
vt -0.009921 0.108377
vt -0.002605 0.018776
vt 1.008037 0.025435
vt 0.986041 0.093873
vt 0.022480 0.095422
vt -0.003796 0.020491
vt 1.004509 0.015449
vt 0.126079 0.143926
vt 0.375000 0.143926
vt 0.375000 0.268939
vt 0.125612 0.268939
vt 0.127669 0.258328
vt 0.625000 0.562176
vt 0.625000 0.811097
vt 0.375000 0.811097
vt 0.375000 0.562176
vt 0.500000 0.588632
vt 0.986156 0.889508
vt 0.980981 0.969694
vt 0.011353 0.978009
vt 0.013475 0.927647
vt 0.010390 0.897719
vt 0.625000 0.143926
vt 0.873921 0.143926
vt 0.872331 0.258328
vt 0.874388 0.268939
vt 0.625000 0.268939
vt 0.986174 0.894984
vt 1.007666 0.975947
vt 0.003357 0.983258
vt 0.003357 0.983258
vt 0.005502 0.902891
vt 0.029664 0.097718
vt 0.020683 0.019519
vt 0.984244 0.017971
vt 0.982438 0.047223
vt 0.986607 0.096380
vt 0.528819 0.221266
vt 0.558627 0.221385
vt 0.589715 0.222927
vt 0.593674 0.241722
vt 0.594666 0.261271
vt 0.593000 0.281181
vt 0.588822 0.301238
vt 0.591976 0.321060
vt 0.592861 0.340772
vt 0.591515 0.360296
vt 0.587929 0.379548
vt 0.559263 0.381253
vt 0.530446 0.380864
vt 0.501613 0.378367
vt 0.415280 0.377187
vt 0.417066 0.220565
vt 0.503400 0.221746
vn -0.999640 0.026849 0.000000
vn -0.999772 0.021339 0.000000
vn -0.974586 0.224012 0.000000
vn -0.971317 0.237787 0.000000
vn -0.971317 0.237787 0.000000
vn -0.974586 0.224012 0.000000
vn -0.900487 0.434882 0.000000
vn -0.895823 0.444411 0.000000
vn -0.895823 0.444411 0.000000
vn -0.900487 0.434882 0.000000
vn -0.781421 0.624004 0.000000
vn -0.777386 0.629024 0.000000
vn -0.777386 0.629024 0.000000
vn -0.781421 0.624004 0.000000
vn -0.623236 0.782034 0.000000
vn -0.621766 0.783203 0.000000
vn -0.431234 0.902240 0.000000
vn -0.433683 0.901066 0.000000
vn -0.222916 0.974838 0.000000
vn -0.227362 0.973810 0.000000
vn 0.003829 0.999993 0.000000
vn 0.000000 1.000000 0.000000
vn 0.222916 0.974838 0.000000
vn 0.227362 0.973810 0.000000
vn 0.971317 0.237787 0.000000
vn 0.974586 0.224012 0.000000
vn 0.999772 0.021339 0.000000
vn 0.999640 0.026849 0.000000
vn 0.227362 0.973810 0.000000
vn 0.222916 0.974838 0.000000
vn 0.433683 0.901066 0.000000
vn 0.431234 0.902240 0.000000
vn 0.895823 0.444411 0.000000
vn 0.900487 0.434882 0.000000
vn 0.974586 0.224012 0.000000
vn 0.971317 0.237787 0.000000
vn 0.777386 0.629024 0.000000
vn 0.781421 0.624004 0.000000
vn 0.900487 0.434882 0.000000
vn 0.895823 0.444411 0.000000
vn 0.621766 0.783203 0.000000
vn 0.623236 0.782034 0.000000
vn 0.781421 0.624004 0.000000
vn 0.777386 0.629024 0.000000
vn -1.000000 0.000000 0.000000
vn -1.000000 0.000000 0.000000
vn -0.999772 0.021339 0.000000
vn -0.999640 0.026849 0.000000
vn -1.000000 0.000000 0.000000
vn 0.000000 -1.000000 0.000000
vn 0.000000 -1.000000 0.000000
vn 0.000000 -1.000000 0.000000
vn 0.000000 -1.000000 0.000000
vn 0.000000 -1.000000 0.000000
vn -0.623236 0.782034 0.000000
vn -0.433683 0.901066 0.000000
vn -0.431234 0.902240 0.000000
vn -0.532032 0.846724 0.000000
vn -0.621766 0.783203 0.000000
vn 1.000000 0.000000 0.000000
vn 1.000000 0.000000 0.000000
vn 1.000000 0.000000 0.000000
vn 0.999640 0.026849 0.000000
vn 0.999772 0.021339 0.000000
vn -0.222916 0.974838 0.000000
vn 0.000000 1.000000 0.000000
vn 0.003829 0.999993 0.000000
vn -0.111915 0.993718 0.000000
vn -0.227362 0.973810 0.000000
vn 0.433683 0.901066 0.000000
vn 0.623236 0.782034 0.000000
vn 0.621766 0.783203 0.000000
vn 0.532032 0.846724 0.000000
vn 0.431234 0.902240 0.000000
vn 0.000000 0.000000 1.000000
vn 0.000000 0.000000 1.000000
vn 0.000000 0.000000 1.000000
vn 0.000000 0.000000 1.000000
vn 0.000000 0.000000 1.000000
vn 0.000000 0.000000 1.000000
vn 0.000000 0.000000 1.000000
vn 0.000000 0.000000 1.000000
vn 0.000000 0.000000 1.000000
vn 0.000000 0.000000 1.000000
vn 0.000000 0.000000 1.000000
vn 0.000000 0.000000 1.000000
vn 0.000000 0.000000 1.000000
vn 0.000000 0.000000 1.000000
vn 0.000000 0.000000 1.000000
vn 0.000000 0.000000 1.000000
vn 0.000000 0.000000 1.000000
s off
g polySurface1 Fachada:polySurface2
usemtl Fachada:initialShadingGroup
f 19/1/1 1/2/2 2/3/3 18/4/4
f 18/5/5 2/6/6 3/7/7 40/8/8
f 40/9/9 3/10/10 4/11/11 39/12/12
f 39/13/13 4/14/14 5/15/15 38/16/16
f 36/17/17 6/18/18 7/19/19 35/20/20
f 33/21/21 8/22/22 9/23/23 32/24/24
f 26/25/25 10/26/26 11/27/27 25/28/28
f 32/29/29 9/30/30 12/31/31 31/32/32
f 27/33/33 13/34/34 10/35/35 26/36/36
f 28/37/37 14/38/38 13/39/39 27/40/40
f 29/41/41 15/42/42 14/43/43 28/44/44
f 21/45/45 16/46/46 1/47/47 19/48/48 20/49/49
f 23/50/50 17/51/51 16/52/52 21/53/53 22/54/54
f 5/55/55 6/56/56 36/57/57 37/58/58 38/59/59
f 17/60/60 23/61/61 24/62/62 25/63/63 11/64/64
f 7/65/65 8/66/66 33/67/67 34/68/68 35/69/69
f 12/70/70 15/71/71 29/72/72 30/73/73 31/74/74
f 10/75/75 13/76/76 14/77/77 15/78/78 12/79/79 9/80/80 8/81/81 7/82/82 6/83/83 5/84/84 4/85/85 3/86/86 2/87/87 1/88/88 16/89/89 17/90/90 11/91/91
