# This file uses centimeters as units for non-parametric coordinates.

mtllib Puertas.mtl
g default
v 0.553214 0.010428 4.045712
v 0.553214 0.563698 4.045712
v 0.539347 0.686787 4.045712
v 0.498433 0.803705 4.045712
v 0.432533 0.908587 4.045712
v 0.344944 0.996176 4.045712
v 0.240063 1.062078 4.045712
v 0.123145 1.102989 4.045712
v 0.000000 1.116856 4.045712
v 0.008057 0.010428 4.045712
vt 0.406185 0.302078
vt 0.406185 0.500020
vt 0.398355 0.544057
vt 0.375253 0.585887
vt 0.338043 0.623410
vt 0.288586 0.654746
vt 0.229366 0.678324
vt 0.163348 0.692961
vt 0.093815 0.697922
vt 0.098364 0.302078
vn 0.000001 0.000000 1.000000
vn 0.000001 0.000000 1.000000
vn 0.000001 0.000000 1.000000
vn 0.000001 0.000000 1.000000
vn 0.000001 0.000000 1.000000
vn 0.000001 0.000000 1.000000
vn 0.000001 0.000000 1.000000
vn 0.000001 0.000000 1.000000
vn 0.000001 0.000000 1.000000
vn 0.000001 0.000000 1.000000
s off
g polySurface5 Entrada1:polySurface3
usemtl phong1SG
f 1/1/1 2/2/2 3/3/3 4/4/4 5/5/5 6/6/6 7/7/7 8/8/8 9/9/9 10/10/10
g default
v -0.553214 0.563698 4.045712
v -0.539347 0.686787 4.045712
v -0.553214 0.010428 4.045712
v 0.000000 1.116856 4.045712
v -0.123145 1.102989 4.045712
v -0.240063 1.062078 4.045712
v -0.344944 0.996176 4.045712
v -0.432533 0.908587 4.045712
v -0.498433 0.803705 4.045712
v -0.005962 0.010428 4.045712
vt 0.101645 0.544057
vt 0.093815 0.500020
vt 0.093815 0.302078
vt 0.402819 0.302078
vt 0.406185 0.697922
vt 0.336652 0.692961
vt 0.270634 0.678324
vt 0.211414 0.654746
vt 0.161957 0.623410
vt 0.124747 0.585887
vn -0.000001 0.000000 1.000000
vn -0.000001 0.000000 1.000000
vn -0.000001 0.000000 1.000000
vn -0.000001 0.000000 1.000000
vn -0.000001 0.000000 1.000000
vn -0.000001 0.000000 1.000000
vn -0.000001 0.000000 1.000000
vn -0.000001 0.000000 1.000000
vn -0.000001 0.000000 1.000000
vn -0.000001 0.000000 1.000000
s off
g Entrada1:polySurface3 polySurface4
usemtl phong1SG
f 12/11/11 11/12/12 13/13/13 20/14/14 14/15/15 15/16/16 16/17/17 17/18/18 18/19/19 19/20/20
