# This file uses centimeters as units for non-parametric coordinates.

mtllib Suelo.mtl
g default
v -2.672380 0.000000 1.941597
v -1.941597 0.000000 2.672380
v 2.672383 0.000000 -1.941600
v 1.941600 0.000000 -2.672380
v -1.020758 0.000000 3.141572
v 3.141572 0.000000 -1.020758
v 3.303243 0.000000 0.000000
v 3.141572 0.000000 1.020758
v 2.672380 0.000000 1.941597
v 1.020758 0.000000 3.141572
v 1.941597 0.000000 2.672380
v 0.000000 0.000000 3.303243
v -3.141572 0.000000 1.020758
v -3.303243 0.000000 0.000000
v -3.141572 0.000000 -1.020758
v -2.672380 0.000000 -1.941597
v -1.941597 0.000000 -2.672380
v -1.020758 0.000000 -3.141572
v 0.000000 0.000000 -3.303243
v 1.020758 0.000000 -3.141572
vt 0.207278 0.902897
vt 0.097103 0.792722
vt 0.026366 0.653893
vt 0.001992 0.500000
vt 0.026366 0.346107
vt 0.097103 0.207278
vt 0.207278 0.097103
vt 0.346107 0.026366
vt 0.500000 0.001992
vt 0.653893 0.026366
vt 0.792722 0.097103
vt 0.902897 0.207278
vt 0.973634 0.346107
vt 0.998008 0.500000
vt 0.973634 0.653893
vt 0.902897 0.792722
vt 0.792722 0.902897
vt 0.653893 0.973634
vt 0.500000 0.998008
vt 0.346107 0.973634
vn 0.000000 -1.000000 0.000000
vn 0.000000 -1.000000 0.000000
vn 0.000000 -1.000000 0.000000
vn 0.000000 -1.000000 0.000000
vn 0.000000 -1.000000 0.000000
vn 0.000000 -1.000000 0.000000
vn 0.000000 -1.000000 0.000000
vn 0.000000 -1.000000 0.000000
vn 0.000000 -1.000000 0.000000
vn 0.000000 -1.000000 0.000000
vn 0.000000 -1.000000 0.000000
vn 0.000000 -1.000000 0.000000
vn 0.000000 -1.000000 0.000000
vn 0.000000 -1.000000 0.000000
vn 0.000000 -1.000000 0.000000
vn 0.000000 -1.000000 0.000000
vn 0.000000 -1.000000 0.000000
vn 0.000000 -1.000000 0.000000
vn 0.000000 -1.000000 0.000000
vn 0.000000 -1.000000 0.000000
s 1
g polySurface1 Fachada:polySurface2
usemtl lambert2SG
f 2/1/1 1/2/2 5/20/3
f 1/2/2 13/3/4 5/20/3
f 13/3/4 14/4/5 5/20/3
f 14/4/5 15/5/6 5/20/3
f 15/5/6 16/6/7 5/20/3
f 16/6/7 17/7/8 5/20/3
f 17/7/8 18/8/9 5/20/3
f 18/8/9 19/9/10 5/20/3
f 19/9/10 20/10/11 5/20/3
f 20/10/11 4/11/12 5/20/3
f 4/11/12 3/12/13 5/20/3
f 3/12/13 6/13/14 5/20/3
f 6/13/14 7/14/15 5/20/3
f 7/14/15 8/15/16 5/20/3
f 8/15/16 9/16/17 5/20/3
f 9/16/17 11/17/18 5/20/3
f 11/17/18 10/18/19 5/20/3
f 10/18/19 12/19/20 5/20/3
