# This file uses centimeters as units for non-parametric coordinates.

mtllib Suelo.mtl
g default
v -2.672380 0.000000 1.941597
v -1.941597 0.000000 2.672380
v 2.672383 0.000000 -1.941600
v 1.941600 0.000000 -2.672380
v -1.020758 0.000000 3.141572
v 3.141572 0.000000 -1.020758
v 3.303243 0.000000 0.000000
v 3.141572 0.000000 1.020758
v 2.672380 0.000000 1.941597
v 1.020758 0.000000 3.141572
v 1.941597 0.000000 2.672380
v 0.000000 0.000000 3.303243
v -3.141572 0.000000 1.020758
v -3.303243 0.000000 0.000000
v -3.141572 0.000000 -1.020758
v -2.672380 0.000000 -1.941597
v -1.941597 0.000000 -2.672380
v -1.020758 0.000000 -3.141572
v 0.000000 0.000000 -3.303243
v 1.020758 0.000000 -3.141572
vt 0.997556 0.478778
vt 0.979762 0.633570
vt 0.966646 0.326063
vt 0.915005 0.775287
vt 0.809625 0.890057
vt 0.673936 0.966646
vt 0.521222 0.997556
vt 0.366430 0.979762
vt 0.224713 0.915005
vt 0.109943 0.809625
vt 0.033354 0.673936
vt 0.002444 0.521222
vt 0.020238 0.366430
vt 0.084995 0.224713
vt 0.190375 0.109943
vt 0.326063 0.033354
vt 0.478778 0.002444
vt 0.633570 0.020238
vt 0.775287 0.084995
vt 0.890057 0.190375
vn 0.000000 -1.000000 0.000000
vn 0.000000 -1.000000 0.000000
vn 0.000000 -1.000000 0.000000
vn 0.000000 -1.000000 0.000000
vn 0.000000 -1.000000 0.000000
vn 0.000000 -1.000000 0.000000
vn 0.000000 -1.000000 0.000000
vn 0.000000 -1.000000 0.000000
vn 0.000000 -1.000000 0.000000
vn 0.000000 -1.000000 0.000000
vn 0.000000 -1.000000 0.000000
vn 0.000000 -1.000000 0.000000
vn 0.000000 -1.000000 0.000000
vn 0.000000 -1.000000 0.000000
vn 0.000000 -1.000000 0.000000
vn 0.000000 -1.000000 0.000000
vn 0.000000 -1.000000 0.000000
vn 0.000000 -1.000000 0.000000
vn 0.000000 -1.000000 0.000000
vn 0.000000 -1.000000 0.000000
vn 0.000000 -1.000000 0.000000
vn 0.000000 -1.000000 0.000000
vn 0.000000 -1.000000 0.000000
vn 0.000000 -1.000000 0.000000
vn 0.000000 -1.000000 0.000000
vn 0.000000 -1.000000 0.000000
vn 0.000000 -1.000000 0.000000
vn 0.000000 -1.000000 0.000000
vn 0.000000 -1.000000 0.000000
vn 0.000000 -1.000000 0.000000
vn 0.000000 -1.000000 0.000000
vn 0.000000 -1.000000 0.000000
vn 0.000000 -1.000000 0.000000
vn 0.000000 -1.000000 0.000000
vn 0.000000 -1.000000 0.000000
vn 0.000000 -1.000000 0.000000
vn 0.000000 -1.000000 0.000000
vn 0.000000 -1.000000 0.000000
vn 0.000000 -1.000000 0.000000
vn 0.000000 -1.000000 0.000000
vn 0.000000 -1.000000 0.000000
vn 0.000000 -1.000000 0.000000
vn 0.000000 -1.000000 0.000000
vn 0.000000 -1.000000 0.000000
vn 0.000000 -1.000000 0.000000
vn 0.000000 -1.000000 0.000000
vn 0.000000 -1.000000 0.000000
vn 0.000000 -1.000000 0.000000
vn 0.000000 -1.000000 0.000000
vn 0.000000 -1.000000 0.000000
vn 0.000000 -1.000000 0.000000
vn 0.000000 -1.000000 0.000000
vn 0.000000 -1.000000 0.000000
vn 0.000000 -1.000000 0.000000
s off
g Suelo:polySurface2
usemtl Suelo:lambert2SG
f 2/1/1 1/2/2 5/3/3
f 1/2/4 13/4/5 5/3/6
f 13/4/7 14/5/8 5/3/9
f 14/5/10 15/6/11 5/3/12
f 15/6/13 16/7/14 5/3/15
f 16/7/16 17/8/17 5/3/18
f 17/8/19 18/9/20 5/3/21
f 18/9/22 19/10/23 5/3/24
f 19/10/25 20/11/26 5/3/27
f 20/11/28 4/12/29 5/3/30
f 4/12/31 3/13/32 5/3/33
f 3/13/34 6/14/35 5/3/36
f 6/14/37 7/15/38 5/3/39
f 7/15/40 8/16/41 5/3/42
f 8/16/43 9/17/44 5/3/45
f 9/17/46 11/18/47 5/3/48
f 11/18/49 10/19/50 5/3/51
f 10/19/52 12/20/53 5/3/54
